<?xml version="1.0" encoding="UTF-8"?>
<svg version="1.1" xmlns="http://www.w3.org/2000/svg" width="1395" height="1395">
<path d="M0 0 C44.52152893 -0.95927249 89.28200318 3.49006754 133.15478516 10.72241211 C135.03404675 11.03179216 136.91418117 11.33586001 138.79443359 11.63916016 C211.44650035 23.58008549 282.70948659 49.99930713 347.27099609 85.07080078 C348.70185547 85.84399658 348.70185547 85.84399658 350.16162109 86.6328125 C364.76981035 94.55728696 378.83886611 103.06097525 392.64306641 112.31298828 C395.11204375 113.96447814 397.59122194 115.59897944 400.07568359 117.22705078 C415.6732074 127.47580345 430.70430677 138.40642787 445.27099609 150.07080078 C446.13853516 150.75529297 447.00607422 151.43978516 447.89990234 152.14501953 C454.2402992 157.16238013 460.41424005 162.36957488 466.56347656 167.61767578 C468.25381021 169.05617533 469.95111101 170.48605515 471.64990234 171.91455078 C485.51794192 183.61850115 498.49023132 196.20103577 511.33349609 209.00830078 C512.1449559 209.81574234 512.1449559 209.81574234 512.97280884 210.63949585 C518.41866614 216.06486405 523.79865326 221.50453042 528.79711914 227.35180664 C531.00841864 229.93086243 533.33048031 232.39742423 535.64599609 234.88330078 C539.93406129 239.52502842 543.99584668 244.30204365 547.95849609 249.22705078 C550.05470712 251.80482381 552.19349105 254.33510167 554.35620117 256.85668945 C559.48444055 262.84332265 564.33290876 268.96961769 568.98974609 275.33447266 C570.39057254 277.23284874 571.81407681 279.11289102 573.23974609 280.99267578 C594.91249887 309.74264294 613.91198404 340.3659452 630.734375 372.17822266 C632.21196942 374.95968733 633.7132075 377.72706337 635.22021484 380.49267578 C649.13372443 406.26634897 660.50338908 433.48020206 670.27099609 461.07080078 C670.63034241 462.08503113 670.63034241 462.08503113 670.99694824 463.11975098 C683.69971359 499.09878989 693.3149814 535.5589256 700.27099609 573.07080078 C700.46372101 574.10886871 700.46372101 574.10886871 700.66033936 575.16790771 C716.16026081 659.26127775 715.07973875 746.46703748 651.27099609 982.07080078 C650.46836246 983.91300903 649.66624295 985.75544141 648.86474609 987.59814453 C644.20330858 998.22986618 639.03020625 1008.50821752 633.52392578 1018.72509766 C632.28558641 1021.04348516 631.0747013 1023.37409017 629.87255859 1025.71142578 C620.93916157 1043.04098181 611.02247715 1059.80773015 600.27099609 1076.07080078 C599.48713386 1077.26610799 598.70327995 1078.46142066 597.91943359 1079.65673828 C586.7260591 1096.65425085 574.70915134 1112.96590612 562.27099609 1129.07080078 C561.72991211 1129.77462891 561.18882813 1130.47845703 560.63134766 1131.20361328 C555.47242327 1137.90854543 550.1910347 1144.40994337 544.45458984 1150.63720703 C542.10798637 1153.25247351 539.90746784 1155.95554368 537.70849609 1158.69580078 C534.47419554 1162.69508373 531.11828613 1166.38681668 527.38818359 1169.92626953 C525.6245718 1171.7126586 524.01745431 1173.52543904 522.39208984 1175.43408203 C517.30771826 1181.28842305 511.79770201 1186.73012533 506.31713867 1192.20996094 C504.4401414 1194.08917717 502.5713272 1195.97629702 500.70263672 1197.86376953 C499.5110677 1199.05826722 498.31902781 1200.25229542 497.12646484 1201.44580078 C496.56815475 1202.01129639 496.00984467 1202.57679199 495.43461609 1203.15942383 C491.49986056 1207.07080078 491.49986056 1207.07080078 489.27099609 1207.07080078 C489.27099609 1207.73080078 489.27099609 1208.39080078 489.27099609 1209.07080078 C488.01318359 1210.37548828 488.01318359 1210.37548828 486.14599609 1211.94580078 C485.41380859 1212.56841797 484.68162109 1213.19103516 483.92724609 1213.83251953 C483.05068359 1214.57115234 482.17412109 1215.30978516 481.27099609 1216.07080078 C479.64923942 1217.45873001 478.03056061 1218.85020137 476.41186523 1220.24169922 C474.60557904 1221.79301262 472.79590555 1223.34030606 470.98583984 1224.88720703 C468.55265993 1226.96850973 466.12864565 1229.05970862 463.71240234 1231.16064453 C456.7112908 1237.23594094 449.58125532 1243.07394488 442.16748047 1248.64257812 C440.04429354 1250.24152812 437.93125612 1251.85345095 435.81787109 1253.46533203 C418.19446622 1266.85562924 400.21528032 1279.63238172 381.17285156 1290.93164062 C378.49038217 1292.53836748 375.85305065 1294.21508907 373.20849609 1295.88330078 C304.65782717 1337.87906949 227.21953866 1367.76561822 128.27099609 1386.07080078 C127.57526489 1386.1816803 126.87953369 1386.29255981 126.16271973 1386.40679932 C103.94312794 1389.94595195 81.71275287 1392.45090251 59.27099609 1394.07080078 C58.04324463 1394.16651367 56.81549316 1394.26222656 55.55053711 1394.36083984 C41.20494766 1395.36088218 26.83267379 1395.31514378 12.45849609 1395.32080078 C11.77183617 1395.32138992 11.08517624 1395.32197906 10.37770844 1395.32258606 C-11.80242871 1395.33599259 -33.68870942 1394.6516706 -55.72900391 1392.07080078 C-58.33965481 1391.78930791 -60.95033196 1391.50805833 -63.56103516 1391.22705078 C-145.81843592 1381.98044903 -227.07370234 1359.53536593 -310.97943115 1317.95306396 C-312.62570409 1317.12289214 -314.2761014 1316.30091366 -315.92675781 1315.47949219 C-331.34940465 1307.79977774 -346.03903886 1299.03899126 -360.66845703 1289.96679688 C-363.26014112 1288.36125933 -365.85879661 1286.76855542 -368.46337891 1285.18408203 C-395.73951117 1268.51008362 -422.22898933 1248.48201421 -445.73291016 1226.82080078 C-447.61351065 1225.022981 -447.61351065 1225.022981 -449.72900391 1224.07080078 C-449.72900391 1223.41080078 -449.72900391 1222.75080078 -449.72900391 1222.07080078 C-450.32197266 1221.80654297 -450.91494141 1221.54228516 -451.52587891 1221.27001953 C-453.80929445 1220.02709653 -455.20327114 1218.76678432 -456.97900391 1216.88330078 C-459.26682291 1214.46523466 -461.65436987 1212.26216569 -464.18212891 1210.10205078 C-469.55037977 1205.439267 -474.5612682 1200.42459511 -479.58642578 1195.39868164 C-481.24836579 1193.7389648 -482.91820001 1192.08745621 -484.58837891 1190.43603516 C-485.64615748 1189.38118464 -486.70346716 1188.32586368 -487.76025391 1187.27001953 C-488.26012817 1186.77733078 -488.76000244 1186.28464203 -489.27502441 1185.77702332 C-492.72900391 1182.29967201 -492.72900391 1182.29967201 -492.72900391 1180.07080078 C-493.38900391 1180.07080078 -494.04900391 1180.07080078 -494.72900391 1180.07080078 C-496.10400391 1178.70751953 -496.10400391 1178.70751953 -497.72900391 1176.75830078 C-500.56902756 1173.40777701 -503.48715543 1170.16156149 -506.47900391 1166.94580078 C-510.74763644 1162.2703243 -514.68166548 1157.41333111 -518.55004883 1152.40429688 C-521.68593444 1148.35568292 -524.94307245 1144.44454582 -528.29150391 1140.57080078 C-533.38474345 1134.63660741 -537.90327918 1128.39577534 -542.375 1121.98681641 C-543.7994505 1119.97111364 -545.2537689 1117.98017853 -546.71728516 1115.99267578 C-567.18308984 1088.16336199 -585.16779597 1058.52024593 -601.21240234 1027.94824219 C-602.5777266 1025.35781854 -603.96356901 1022.78027328 -605.36181641 1020.20751953 C-649.76185071 938.10136604 -674.71148507 844.95241471 -682.72900391 745.07080078 C-682.7820166 744.35809021 -682.8350293 743.64537964 -682.88964844 742.91107178 C-684.07344064 726.36890793 -683.97455222 709.77143832 -683.97900391 693.19580078 C-683.97944576 692.44077648 -683.97988762 691.68575218 -683.98034286 690.90784836 C-683.98729253 668.22252827 -683.71292813 645.69775914 -680.97900391 623.14898682 C-680.71837854 620.98247487 -680.47079867 618.81473672 -680.22509766 616.64648438 C-672.21461881 546.73736343 -653.51206727 478.27035185 -624.72900391 414.07080078 C-624.46065735 413.4709436 -624.19231079 412.87108643 -623.91583252 412.25305176 C-611.8487733 385.31268209 -598.38699312 359.11554347 -582.72900391 334.07080078 C-582.18566406 333.19552734 -581.64232422 332.32025391 -581.08251953 331.41845703 C-566.11861189 307.36017907 -549.95919983 283.78821222 -531.72900391 262.07080078 C-530.29002248 260.30117105 -528.85256676 258.53029977 -527.41650391 256.75830078 C-518.94040678 246.41009177 -510.18640225 236.33682644 -501.08251953 226.53759766 C-499.77103574 225.11635043 -498.4762722 223.67973061 -497.18212891 222.24267578 C-490.72065545 215.08440007 -483.98686554 208.19718108 -477.19152832 201.35708618 C-476.13418558 200.29224326 -475.07843472 199.22581728 -474.02429199 198.1578064 C-472.5325992 196.64828824 -471.03424077 195.14572782 -469.53369141 193.64501953 C-468.65696777 192.76418701 -467.78024414 191.88335449 -466.87695312 190.97583008 C-464.72900391 189.07080078 -464.72900391 189.07080078 -462.72900391 189.07080078 C-462.72900391 188.41080078 -462.72900391 187.75080078 -462.72900391 187.07080078 C-461.33056641 185.66064453 -461.33056641 185.66064453 -459.35400391 184.00830078 C-456.15354046 181.29156292 -453.01594328 178.52744859 -449.91650391 175.69580078 C-445.57336117 171.77702619 -441.10517541 168.04940176 -436.55712891 164.37158203 C-433.70957006 162.05499065 -430.906965 159.69106433 -428.10400391 157.32080078 C-421.22597551 151.58468443 -414.13148005 146.1502267 -406.9765625 140.76513672 C-405.50770336 139.65782818 -404.04174676 138.546656 -402.57910156 137.43115234 C-369.30301055 112.06277674 -332.97653982 91.00187156 -295.72900391 72.07080078 C-294.7826709 71.58885254 -293.83633789 71.1069043 -292.86132812 70.61035156 C-265.85524177 56.97105397 -237.39532153 45.70264824 -208.72900391 36.07080078 C-207.59479004 35.68649902 -206.46057617 35.30219727 -205.29199219 34.90625 C-147.82906708 15.63831219 -87.23619223 4.32042305 -26.72900391 1.07080078 C-25.20847412 0.98620605 -25.20847412 0.98620605 -23.65722656 0.89990234 C-15.77388456 0.47540504 -7.89176589 0.20474254 0 0 Z " fill="#E13425" transform="translate(683.72900390625,-0.07080078125)"/>
<path d="M0 0 C-3.46559374 4.19519242 -7.06505375 8.11235081 -10.9375 11.9375 C-14.46432692 15.42764373 -17.80877354 18.98031056 -21.03125 22.75 C-23.07772986 25.08883412 -25.18393108 27.36057594 -27.30517578 29.63134766 C-32.30673126 34.98760131 -37.09307678 40.4353162 -41.6796875 46.15625 C-43.32366338 48.17108913 -44.98091071 50.14133753 -46.6953125 52.09375 C-108.20892763 122.15671503 -149.58694552 212.06813253 -187.75732422 404.16943359 C-187.92373824 406.11048406 -188.09762683 408.05090395 -188.27783203 409.99072266 C-191.75057716 448.3201922 -191.50533508 487.68268307 -188 526 C-187.90348145 527.13969238 -187.80696289 528.27938477 -187.70751953 529.45361328 C-179.87364497 620.51436532 -148.50588853 711.62860443 -95 786 C-94.46407227 786.74701172 -93.92814453 787.49402344 -93.37597656 788.26367188 C-85.29067182 799.48993071 -76.87420233 810.38723539 -68 821 C-67.50822266 821.59087402 -67.01644531 822.18174805 -66.50976562 822.79052734 C-52.26106537 839.85948102 -36.96165243 856.95384827 -19.95703125 871.328125 C-17.39675243 873.51534922 -14.92206346 875.78974642 -12.4375 878.0625 C-8.35386482 881.78782178 -4.22303826 885.43387881 0 889 C-3.53434781 892.65870449 -7.23399933 895.93503082 -11.25 899.0625 C-11.85424805 899.53437744 -12.45849609 900.00625488 -13.08105469 900.49243164 C-20.53523713 906.25756842 -28.23643349 911.66222476 -36 917 C-36.71140137 917.49113281 -37.42280273 917.98226562 -38.15576172 918.48828125 C-50.4220891 926.92364179 -63.07534608 934.61773242 -76 942 C-76.86544434 942.49467773 -77.73088867 942.98935547 -78.62255859 943.49902344 C-148.25744158 983.00761538 -225.73915635 1007.75797358 -526 1015 C-527.20333984 1014.75411133 -528.40667969 1014.50822266 -529.64648438 1014.25488281 C-565.32309811 1006.83853927 -600.05754242 996.23540183 -634 983 C-634.66 983.66 -635.32 984.32 -636 985 C-669.02818504 908.17959165 -689.93909974 828.47653193 -696 745 C-696.0530127 744.28728943 -696.10602539 743.57457886 -696.16064453 742.840271 C-697.34443674 726.29810715 -697.24554832 709.70063753 -697.25 693.125 C-697.25044186 692.3699757 -697.25088371 691.6149514 -697.25133896 690.83704758 C-697.25828862 668.15172749 -696.98392422 645.62695836 -694.25 623.07818604 C-693.98937464 620.91167408 -693.74179476 618.74393594 -693.49609375 616.57568359 C-685.4856149 546.66656265 -666.78306336 478.19955107 -638 414 C-637.73165344 413.40014282 -637.46330688 412.80028564 -637.18682861 412.18225098 C-625.11976939 385.24188131 -611.65798921 359.04474269 -596 334 C-595.45666016 333.12472656 -594.91332031 332.24945313 -594.35351562 331.34765625 C-579.38960799 307.28937829 -563.23019593 283.71741144 -545 262 C-543.56101857 260.23037027 -542.12356286 258.45949899 -540.6875 256.6875 C-532.21140288 246.33929099 -523.45739834 236.26602565 -514.35351562 226.46679688 C-513.04203183 225.04554964 -511.7472683 223.60892982 -510.453125 222.171875 C-503.99165155 215.01359929 -497.25786164 208.1263803 -490.46252441 201.2862854 C-489.40518167 200.22144248 -488.34943081 199.15501649 -487.29528809 198.08700562 C-485.8035953 196.57748745 -484.30523686 195.07492704 -482.8046875 193.57421875 C-481.92796387 192.69338623 -481.05124023 191.81255371 -480.14794922 190.9050293 C-478 189 -478 189 -476 189 C-476 188.34 -476 187.68 -476 187 C-474.6015625 185.58984375 -474.6015625 185.58984375 -472.625 183.9375 C-469.42453655 181.22076214 -466.28693937 178.45664781 -463.1875 175.625 C-458.84435726 171.70622541 -454.3761715 167.97860098 -449.828125 164.30078125 C-446.98056615 161.98418987 -444.17796109 159.62026355 -441.375 157.25 C-434.4969716 151.51388365 -427.40247615 146.07942592 -420.24755859 140.69433594 C-418.77869945 139.58702739 -417.31274286 138.47585522 -415.85009766 137.36035156 C-382.57400664 111.99197595 -346.24753591 90.93107078 -309 72 C-308.05366699 71.51805176 -307.10733398 71.03610352 -306.13232422 70.53955078 C-279.12623786 56.90025319 -250.66631763 45.63184746 -222 36 C-220.86578613 35.61569824 -219.73157227 35.23139648 -218.56298828 34.83544922 C-161.11562713 15.57273017 -100.49732424 4.2119069 -40 1 C-38.94377441 0.94360352 -37.88754883 0.88720703 -36.79931641 0.82910156 C-24.52916013 0.19967178 -12.28635731 -0.16261355 0 0 Z " fill="#C22920" transform="translate(697,0)"/>
<path d="M0 0 C3.00091526 1.37070631 5.3329225 2.95347592 7.8125 5.125 C8.43769531 5.66382813 9.06289063 6.20265625 9.70703125 6.7578125 C11.6709322 8.6782199 13.44074755 10.63205631 15.23046875 12.7109375 C19.10908486 17.19651064 23.27118184 21.34683154 27.5 25.5 C32.35037246 30.26360373 37.04225369 35.07580202 41.4765625 40.23144531 C43.35209632 42.40874771 45.30029793 44.51410209 47.25 46.625 C52.22776816 52.14364619 56.80408517 57.94662823 61.32983398 63.83666992 C62.61202101 65.49745917 63.90531669 67.14967697 65.20336914 68.7980957 C71.73169846 77.12463668 77.72168044 85.74323128 83.5625 94.5625 C84.03533417 95.27421356 84.50816833 95.98592712 84.99533081 96.71920776 C99.45534984 118.51081158 112.93814189 140.77951184 125 164 C125.5357666 165.02770508 126.0715332 166.05541016 126.62353516 167.11425781 C143.1457028 198.98228926 157.03374017 232.47671201 167 267 C167.26731934 267.92006836 167.53463867 268.84013672 167.81005859 269.78808594 C178.07389118 305.50412034 184.37082485 341.82679163 188.1875 378.75 C188.26640472 379.49323517 188.34530945 380.23647034 188.42660522 381.00222778 C191.56286178 410.96762404 192.3425738 441.06368634 192.26074219 471.17041016 C192.24923798 475.43549257 192.25620114 479.70032817 192.2676363 483.9654026 C192.30826715 501.90890098 192.04785685 519.67424381 190.23826599 537.5464325 C189.92701465 540.75157386 189.69363123 543.96049049 189.45921326 547.17199707 C186.8839184 581.45355085 178.07595445 616.09170414 167.16455078 648.53320312 C166.03090645 651.90799338 164.9189485 655.28936381 163.80859375 658.671875 C158.75463331 673.87231884 152.74859121 688.47742922 146 703 C145.50564453 704.06702148 145.01128906 705.13404297 144.50195312 706.23339844 C125.87000209 746.24293551 102.33332669 783.15879369 74 817 C73.58572754 817.49918945 73.17145508 817.99837891 72.74462891 818.51269531 C61.98304107 831.47759972 50.50390256 843.66828093 38.57128906 855.55908203 C36.7338424 857.39110995 34.9018835 859.22850605 33.0703125 861.06640625 C27.21538149 866.92489228 21.33249753 872.65341124 15 878 C13.90966848 878.96673507 12.82105258 879.93540946 11.734375 880.90625 C10.74953125 881.7621875 9.7646875 882.618125 8.75 883.5 C8.24726562 883.95375 7.74453125 884.4075 7.2265625 884.875 C3.61174275 887.97882429 3.61174275 887.97882429 0.96875 888.0703125 C-1.84059507 886.54300982 -3.92794527 884.57100033 -6.25 882.375 C-7.23640343 881.45250899 -8.22338496 880.53063576 -9.2109375 879.609375 C-10.13132812 878.74828125 -11.05171875 877.8871875 -12 877 C-13.28511576 875.86752251 -14.57603105 874.74156054 -15.875 873.625 C-24.83834045 865.80244833 -33.44854414 857.64614817 -41.875 849.25 C-42.57616943 848.55342285 -43.27733887 847.8568457 -43.99975586 847.13916016 C-47.98135058 843.14573939 -51.78089046 839.04798567 -55.46337891 834.77734375 C-57.34606676 832.59971941 -59.29694675 830.48952616 -61.25 828.375 C-66.28815391 822.78460325 -70.88542589 816.89967328 -75.48144531 810.94677734 C-77.0275653 808.96466147 -78.60014443 807.00633775 -80.1796875 805.05078125 C-94.23354568 787.52355953 -106.93176722 768.5535272 -118 749 C-118.39058594 748.31212402 -118.78117188 747.62424805 -119.18359375 746.91552734 C-121.75657386 742.36772488 -124.28713155 737.79813568 -126.79003906 733.21142578 C-127.92086013 731.14464264 -129.06510508 729.08582706 -130.2109375 727.02734375 C-166.04754888 661.87428099 -184.14698859 585.87683165 -189 512 C-189.13136353 510.0504541 -189.13136353 510.0504541 -189.26538086 508.06152344 C-190.14699798 493.96347223 -190.19917558 479.87154954 -190.1875 465.75 C-190.18722809 464.51221802 -190.18695618 463.27443604 -190.18667603 461.99914551 C-190.1677409 443.23912914 -189.75837345 424.68341566 -188 406 C-187.90879883 404.92911133 -187.81759766 403.85822266 -187.72363281 402.75488281 C-184.67195767 367.15200616 -178.59205838 331.67190082 -170 297 C-169.83346924 296.32269836 -169.66693848 295.64539673 -169.49536133 294.9475708 C-160.98123288 260.41309632 -149.45463648 226.49901564 -135 194 C-134.73249939 193.39772583 -134.46499878 192.79545166 -134.18939209 192.17492676 C-110.13626167 138.13644635 -78.75511353 88.44069559 -40.12109375 43.62890625 C-38.01762011 41.18861266 -35.92755865 38.73775543 -33.84765625 36.27734375 C-29.00967252 30.56558257 -24.16575726 24.99612408 -18.78515625 19.78125 C-16.96608032 17.96615454 -15.29483496 16.07766083 -13.625 14.125 C-9.35430645 9.15078153 -4.67522621 4.59056416 0 0 Z " fill="#FEFEFE" transform="translate(696,1)"/>
</svg>
