<?xml version="1.0" encoding="UTF-8"?>
<svg version="1.1" xmlns="http://www.w3.org/2000/svg" width="1405" height="815">
<path d="M0 0 C463.65 0 927.3 0 1405 0 C1405 268.95 1405 537.9 1405 815 C941.35 815 477.7 815 0 815 C0 546.05 0 277.1 0 0 Z " fill="#00488E" transform="translate(0,0)"/>
<path d="M0 0 C18.2476343 -0.07049855 36.49523261 -0.12318612 54.74297428 -0.15543652 C63.21826326 -0.17081784 71.69346698 -0.19173722 80.16870117 -0.22631836 C87.56721879 -0.25649148 94.96567458 -0.2756382 102.36425203 -0.28226548 C106.27130995 -0.28613121 110.17819121 -0.29502656 114.08519173 -0.31719017 C131.59037624 -0.41261641 148.6918404 0.01490301 166 3 C166.68299321 3.11703246 167.36598642 3.23406492 168.0696764 3.35464382 C171.64668664 3.97789093 175.1996229 4.67756441 178.75 5.4375 C180.87368362 5.8828807 182.99738163 6.32819273 185.12109375 6.7734375 C186.12897949 6.98709961 187.13686523 7.20076172 188.17529297 7.42089844 C190.62392411 7.92289957 193.0708689 8.37270397 195.53515625 8.7890625 C244.44059517 17.38101119 295.84264214 42.0747499 331.58007812 76.64941406 C333.74453128 78.70817521 336.00133066 80.65913876 338.25 82.625 C376.52863023 117.08807545 407.21321455 175.34494299 410.11807251 227.1038208 C410.30613721 232.65184479 410.28676713 238.19963402 410.25 243.75 C410.24623352 244.61226196 410.24246704 245.47452393 410.23858643 246.36291504 C409.891137 314.41583684 392.03287795 381.88572851 351 437 C350.55188965 437.60650391 350.1037793 438.21300781 349.64208984 438.83789062 C342.15218518 448.90583213 333.70632509 457.97983922 325 467 C323.83791016 468.22396484 323.83791016 468.22396484 322.65234375 469.47265625 C317.49644915 474.79794369 311.82322151 479.42461167 306 484 C304.62714844 485.08087891 304.62714844 485.08087891 303.2265625 486.18359375 C287.06898373 498.60058237 269.68532203 508.88352567 251 517 C250.27312988 517.31928467 249.54625977 517.63856934 248.79736328 517.9675293 C229.64381069 526.34534847 210.37930773 532.33638591 190 537 C189.16227051 537.19335938 188.32454102 537.38671875 187.46142578 537.5859375 C175.31741363 540.31926868 163.04391108 541.80883462 150.6875 543.1875 C149.92981323 543.27235657 149.17212646 543.35721313 148.39147949 543.44464111 C129.95350852 545.48514188 111.72012314 546.16261774 93.17333984 546.13037109 C89.50744492 546.12501089 85.84167247 546.13034499 82.17578125 546.13671875 C79.79427057 546.13605782 77.41275996 546.13477635 75.03125 546.1328125 C73.42582336 546.13584885 73.42582336 546.13584885 71.78796387 546.13894653 C66.12796775 546.12192718 60.52836831 545.9205516 54.8828125 545.51147461 C42.88916091 544.67325869 30.86083837 544.76424353 18.84375 544.68359375 C16.24344586 544.66298205 13.64314475 544.6419846 11.04284668 544.62062073 C4.94122853 544.57140891 -1.16040664 544.52603426 -7.26206827 544.48259836 C-14.22001308 544.43284675 -21.17791568 544.37807197 -28.13581944 544.32291877 C-42.42383984 544.20977225 -56.71190153 544.10279235 -71 544 C-70.85346644 541.30450936 -70.70365581 538.60926598 -70.55200195 535.9140625 C-70.51127815 535.15875244 -70.47055435 534.40344238 -70.4285965 533.62524414 C-70.05259801 527.018557 -69.21173825 520.53693369 -68.1875 514 C-66.61578307 503.51612993 -65.23943392 493.0268417 -64 482.5 C-62.66189117 471.17237202 -61.15857047 459.88370997 -59.5 448.59765625 C-58.18985621 439.5801822 -57.07015718 430.54826259 -56 421.5 C-54.66027712 410.17253838 -53.15857924 398.88376966 -51.5 387.59765625 C-50.18985621 378.5801822 -49.07015718 369.54826259 -48 360.5 C-46.66027712 349.17253838 -45.15857924 337.88376966 -43.5 326.59765625 C-42.18985621 317.5801822 -41.07015718 308.54826259 -40 299.5 C-38.66027712 288.17253838 -37.15857924 276.88376966 -35.5 265.59765625 C-34.18985621 256.5801822 -33.07015718 247.54826259 -32 238.5 C-30.66027712 227.17253838 -29.15857924 215.88376966 -27.5 204.59765625 C-26.18985621 195.5801822 -25.07015718 186.54826259 -24 177.5 C-22.66027712 166.17253838 -21.15857924 154.88376966 -19.5 143.59765625 C-18.18985621 134.5801822 -17.07015718 125.54826259 -16 116.5 C-14.79504398 106.31200274 -13.4917481 96.15102182 -12 86 C-10.52994386 75.99547114 -9.2462078 65.97893967 -8.0625 55.9375 C-6.63305681 43.83110906 -5.03773235 31.75534264 -3.3125 19.6875 C-3.20390656 18.92339813 -3.09531311 18.15929626 -2.98342896 17.37203979 C-2.67531541 15.20985642 -2.36383539 13.04819177 -2.05078125 10.88671875 C-1.87200439 9.65139404 -1.69322754 8.41606934 -1.5090332 7.14331055 C-1.11361419 4.70157446 -0.61988665 2.38792628 0 0 Z " fill="#FEFEFE" transform="translate(930,214)"/>
<path d="M0 0 C0.99459969 0.00004181 0.99459969 0.00004181 2.0092923 0.00008446 C19.10725363 0.00102475 36.20520458 0.01164014 53.30315959 0.02562964 C63.2270896 0.03365842 73.15101863 0.03905106 83.07495117 0.04272461 C83.78266318 0.04298733 84.49037518 0.04325006 85.219533 0.04352074 C88.77298853 0.0448266 92.32644407 0.04609011 95.87989962 0.04733264 C124.95509401 0.05755327 154.0302813 0.07511052 183.10546875 0.09765625 C182.95450244 2.82606493 182.8009827 5.5542899 182.64599609 8.2824707 C182.60373398 9.05103645 182.56147186 9.8196022 182.51792908 10.61145782 C182.21470524 15.90208399 181.67601975 21.06823785 180.73046875 26.28515625 C180.45892874 27.89810061 180.18948044 29.51139819 179.921875 31.125 C179.71715576 32.35065674 179.71715576 32.35065674 179.50830078 33.60107422 C176.53774752 52.0113031 174.4894813 70.62155898 172.10546875 89.09765625 C103.46546875 89.09765625 34.82546875 89.09765625 -35.89453125 89.09765625 C-35.89453125 91.73765625 -35.89453125 94.37765625 -35.89453125 97.09765625 C-36.10114559 99.00217011 -36.35467989 100.90242784 -36.6640625 102.79296875 C-36.82898193 103.82583008 -36.99390137 104.85869141 -37.16381836 105.92285156 C-37.34307861 107.01178711 -37.52233887 108.10072266 -37.70703125 109.22265625 C-38.08083964 111.57399462 -38.45321645 113.92556099 -38.82421875 116.27734375 C-39.00823242 117.43975586 -39.19224609 118.60216797 -39.38183594 119.79980469 C-40.68977898 128.21299262 -41.78256518 136.65676846 -42.89453125 145.09765625 C-42.98454407 145.78077881 -43.07455688 146.46390137 -43.16729736 147.16772461 C-43.8001324 151.97144026 -44.43187641 156.77529893 -45.06335449 161.57919312 C-45.39254295 164.08253604 -45.72208711 166.58583187 -46.05175781 169.08911133 C-46.21207993 170.3066938 -46.21207993 170.3066938 -46.37564087 171.5488739 C-46.58748629 173.15769577 -46.79937942 174.76651136 -47.01132202 176.37532043 C-47.61730818 180.97866837 -48.2168044 185.58280669 -48.8125 190.1875 C-49.06875149 192.13675281 -49.32523651 194.08597494 -49.58203125 196.03515625 C-49.68902344 196.87884766 -49.79601562 197.72253906 -49.90625 198.59179688 C-50.0609375 199.75291992 -50.0609375 199.75291992 -50.21875 200.9375 C-50.30213623 201.58066162 -50.38552246 202.22382324 -50.47143555 202.88647461 C-51.06809936 206.00475745 -52.02233188 209.04495846 -52.89453125 212.09765625 C15.08546875 212.09765625 83.06546875 212.09765625 153.10546875 212.09765625 C153.10546875 218.42875917 153.03129212 224.08342003 152.11157227 230.23779297 C151.95304779 231.35688301 151.95304779 231.35688301 151.7913208 232.49858093 C151.44574182 234.92585629 151.09025576 237.35155935 150.734375 239.77734375 C150.48959454 241.47974841 150.24537699 243.18223409 150.00169373 244.88479614 C149.49228211 248.43391865 148.97834629 251.98234373 148.46069336 255.53027344 C147.79758379 260.07548592 147.14246121 264.62180235 146.49026585 269.16859245 C145.86606221 273.51774201 145.23784755 277.86630939 144.609375 282.21484375 C144.49023806 283.04164516 144.37110111 283.86844658 144.24835396 284.72030258 C143.91070665 287.0584928 143.57019989 289.39624773 143.22875977 291.73388672 C143.12949692 292.42380203 143.03023407 293.11371735 142.92796326 293.82453918 C142.46361937 296.98311809 141.88148619 299.99358649 141.10546875 303.09765625 C72.46546875 303.09765625 3.82546875 303.09765625 -66.89453125 303.09765625 C-67.22453125 307.38765625 -67.55453125 311.67765625 -67.89453125 316.09765625 C-68.19801222 318.53587041 -68.53027929 320.97095269 -68.91015625 323.3984375 C-69.20515015 325.32804321 -69.20515015 325.32804321 -69.50610352 327.29663086 C-69.66189377 328.29894241 -69.66189377 328.29894241 -69.8208313 329.32150269 C-71.94549073 343.03073395 -73.77674521 356.76498727 -75.45703125 370.53515625 C-76.9557346 382.80055843 -78.56269454 395.03130349 -80.44116211 407.24560547 C-82.00736776 417.54326844 -83.27614529 427.87372166 -84.50024414 438.21679688 C-84.65356201 439.48845703 -84.80687988 440.76011719 -84.96484375 442.0703125 C-85.09648926 443.18672119 -85.22813477 444.30312988 -85.36376953 445.45336914 C-86.03042844 450.0307461 -86.98736292 454.56181459 -87.89453125 459.09765625 C-19.58453125 459.09765625 48.72546875 459.09765625 119.10546875 459.09765625 C117.97763975 471.50377528 117.97763975 471.50377528 117.23828125 477.65234375 C117.11939545 478.64238907 117.11939545 478.64238907 116.99810791 479.6524353 C116.74418748 481.75941813 116.48750786 483.8660518 116.23046875 485.97265625 C116.14242981 486.69964722 116.05439087 487.42663818 115.96368408 488.17565918 C114.805115 497.73195417 113.54423545 507.26580677 112.11425781 516.78564453 C111.0516389 524.03706198 110.35595634 531.31138182 109.75146484 538.61425781 C109.20578659 544.99733841 109.20578659 544.99733841 108.10546875 546.09765625 C103.14341807 546.64597067 98.14406745 546.8662472 93.16015625 547.1484375 C92.38446163 547.19292841 91.60876701 547.23741932 90.8095665 547.28325844 C71.91333151 548.33949638 53.0364763 548.36744501 34.11645126 548.29509354 C30.15865264 548.28146567 26.20085281 548.27542015 22.24303722 548.26884747 C-52.13852358 548.13786622 -126.52245745 547.2591968 -200.89453125 546.09765625 C-200.41654835 538.77298453 -199.94093417 531.49438187 -198.84375 524.234375 C-198.6958754 523.23468437 -198.6958754 523.23468437 -198.54501343 522.21479797 C-198.33590459 520.80134683 -198.12476674 519.38819444 -197.91165161 517.9753418 C-196.06474246 505.70342475 -194.39926758 493.42402017 -192.95703125 481.09765625 C-191.48554092 468.55032386 -189.7965083 456.04272159 -188.01953125 443.53515625 C-185.65450819 426.88575432 -183.50536882 410.21741142 -181.45471191 393.52655029 C-179.76986801 379.83452418 -177.95663839 366.17179474 -175.95623779 352.52246094 C-174.37641412 341.72632577 -172.99261475 330.91996681 -171.72061157 320.08355713 C-170.30228384 308.04235507 -168.6589256 296.03930555 -166.95703125 284.03515625 C-164.93977312 269.79894158 -163.02862788 255.55564055 -161.26953125 241.28515625 C-161.16665802 240.45132416 -161.06378479 239.61749207 -160.95779419 238.75839233 C-160.85578705 237.93150909 -160.75377991 237.10462585 -160.64868164 236.25268555 C-160.44681232 234.61636938 -160.24490852 232.98005747 -160.04296875 231.34375 C-159.94521652 230.5513945 -159.84746429 229.759039 -159.74674988 228.94267273 C-157.87651736 213.82737321 -155.83195035 198.734349 -153.7109375 183.65234375 C-153.2927145 180.6758169 -152.87475343 177.69925343 -152.45703125 174.72265625 C-152.35246613 173.97826294 -152.247901 173.23386963 -152.14016724 172.46691895 C-150.29969214 159.33375265 -148.63434676 146.18236935 -147.0149231 133.02032471 C-145.60781211 121.59763809 -144.08660683 110.2017211 -142.41162109 98.81469727 C-140.82350178 87.88865805 -139.48729885 76.93458213 -138.14318848 65.97650146 C-136.43588578 52.08749778 -134.54780989 38.23215908 -132.50610352 24.38842773 C-131.55501348 17.91188465 -130.65229931 11.45897472 -130.13183594 4.93115234 C-129.89453125 3.09765625 -129.89453125 3.09765625 -128.89453125 1.09765625 C-85.93107782 0.1878526 -42.97217342 -0.00249795 0 0 Z " fill="#FEFEFE" transform="translate(683.89453125,212.90234375)"/>
<path d="M0 0 C18.83332463 -0.03177507 37.66665282 -0.0514652 56.5 -0.0625 C57.21919302 -0.0629343 57.93838604 -0.06336861 58.67937279 -0.06381607 C111.20459167 -0.09464556 163.72613599 0.13105592 216.25 0.5 C217.52800917 0.50896057 217.52800917 0.50896057 218.8318367 0.51810217 C240.55462018 0.67056899 262.27734021 0.83080798 284 1 C284.07487402 7.32184092 283.98666199 13.49496537 283.28149414 19.77880859 C283.16686073 20.82255646 283.16686073 20.82255646 283.0499115 21.88739014 C282.80081692 24.14176616 282.54318573 26.39506824 282.28515625 28.6484375 C282.10772337 30.23494342 281.93076561 31.82150254 281.7542572 33.40811157 C281.38552096 36.71146723 281.01285162 40.01434523 280.63696289 43.31689453 C280.15605391 47.54276083 279.6824069 51.76940024 279.21134281 55.99637413 C278.84692193 59.26341 278.48006574 62.53016839 278.1123333 65.79683304 C277.9368847 67.35565999 277.76186771 68.91453559 277.58729744 70.47346115 C277.34309502 72.64842389 277.09594984 74.82303166 276.84790039 76.99755859 C276.6380526 78.84974503 276.6380526 78.84974503 276.42396545 80.73934937 C276.06368795 83.51018613 275.54798008 86.26009962 275 89 C215.27 89 155.54 89 94 89 C93.67 93.62 93.34 98.24 93 103 C92.45767873 107.386422 91.8827993 111.75230682 91.25 116.125 C90.89059888 118.67187131 90.53122518 121.2187465 90.171875 123.765625 C89.97999184 125.11395708 89.78793164 126.46226398 89.59570312 127.81054688 C88.54853288 135.16322119 87.52448066 142.51913644 86.5 149.875 C86.39485077 150.62832611 86.28970154 151.38165222 86.18136597 152.1578064 C84.48553773 164.31668841 82.87530697 176.48486334 81.34375 188.66552734 C81.19550781 189.83680176 81.04726563 191.00807617 80.89453125 192.21484375 C80.70661011 193.71712524 80.70661011 193.71712524 80.51489258 195.24975586 C79.74692577 200.84327797 78.85851414 206.41965807 78 212 C137.73 212 197.46 212 259 212 C257.8741567 222.13258973 257.8741567 222.13258973 257.41503906 225.68896484 C257.31112854 226.49627045 257.20721802 227.30357605 257.10015869 228.13534546 C256.98976257 228.98529083 256.87936646 229.83523621 256.765625 230.7109375 C256.58577057 232.09884995 256.58577057 232.09884995 256.40228271 233.51480103 C256.14723313 235.47981694 255.89171065 237.44477153 255.63574219 239.40966797 C255.26278212 242.27673947 254.89302083 245.14421033 254.5234375 248.01171875 C252.17833823 266.03513636 249.57110626 284.00225617 247 302 C186.94 302 126.88 302 65 302 C64.67 306.95 64.34 311.9 64 317 C63.32707655 321.74799774 62.60741831 326.46106758 61.8125 331.1875 C59.26407203 346.75589041 57.13154435 362.37288795 55.0559082 378.01049805 C54.93393066 378.92266083 54.81195313 379.83482361 54.6862793 380.77462769 C54.4597035 382.47029614 54.23529076 384.16625592 54.01367188 385.86257935 C53.46216639 389.98749646 52.8167903 394.07436345 52.04760742 398.16455078 C50.89392017 404.3816526 50.02958838 410.62974221 49.1829071 416.89511299 C48.89897895 418.99518655 48.61180516 421.09479536 48.32385254 423.19432068 C47.60999757 428.40340283 46.90080588 433.6131166 46.19281006 438.82299805 C45.59184915 443.24496006 44.98841768 447.66657019 44.3815155 452.08772087 C44.1010835 454.13779534 43.82422553 456.18833132 43.54748535 458.23890686 C42.69864396 464.42543686 41.7424513 470.53701192 40.46105957 476.64808655 C39.63108182 480.88189049 39.10855129 485.15552848 38.5625 489.43359375 C38.43689697 490.39217789 38.31129395 491.35076202 38.18188477 492.33839417 C37.78472344 495.37102262 37.39189468 498.4041868 37 501.4375 C36.60788271 504.46721117 36.21468547 507.49676245 35.81811523 510.52589417 C35.57279507 512.40001077 35.32993071 514.27445129 35.09008789 516.14927673 C34.38608081 521.53128969 33.51527995 526.85456558 32.48461914 532.18397522 C31.86741907 535.77040121 31.45138057 539.38895543 31 543 C-3.32 543 -37.64 543 -73 543 C-71.84843939 528.02971206 -71.84843939 528.02971206 -70.94921875 521.1484375 C-70.85054504 520.37469284 -70.75187134 519.60094818 -70.65020752 518.80375671 C-70.33297013 516.32701612 -70.01053603 513.8509904 -69.6875 511.375 C-69.57673126 510.5169577 -69.46596252 509.65891541 -69.35183716 508.77487183 C-67.84704526 497.11932153 -66.22453261 485.48847113 -64.44995117 473.87060547 C-63.14952562 465.26436694 -62.0537551 456.63897059 -61 448 C-59.49949718 435.70113083 -57.77903998 423.44693255 -55.9296875 411.1953125 C-54.05775624 398.79044552 -52.42108901 386.35549401 -50.84375 373.91015625 C-50.41688817 370.54424269 -49.9898501 367.17835161 -49.5625 363.8125 C-49.45464172 362.9627359 -49.34678345 362.1129718 -49.23565674 361.23745728 C-47.76848075 349.70422702 -46.18871959 338.19692016 -44.44726562 326.70141602 C-41.970195 310.29579718 -39.86281562 293.8382118 -37.77734375 277.37890625 C-37.35182649 274.02340395 -36.92603708 270.66793634 -36.5 267.3125 C-36.39391418 266.47625092 -36.28782837 265.64000183 -36.17852783 264.77841187 C-34.73847821 253.45169374 -33.17367932 242.15391174 -31.44921875 230.86645508 C-30.04626331 221.57965375 -28.88604509 212.26889742 -27.74972534 202.94680786 C-26.62947565 193.77678935 -25.39333885 184.63320357 -24 175.5 C-22.52513998 165.82987985 -21.24215051 156.14783673 -20.0625 146.4375 C-18.61781521 134.54906799 -16.96037334 122.70578482 -15.17852783 110.86346436 C-13.51394259 99.77668657 -12.04485725 88.6777521 -10.69287109 77.54882812 C-9.46099558 67.42720567 -8.04639499 57.34814291 -6.50634766 47.26928711 C-4.90875808 36.68466474 -3.59046046 26.06976624 -2.30664062 15.44335938 C-2.15001953 14.15494141 -1.99339844 12.86652344 -1.83203125 11.5390625 C-1.69514893 10.39646973 -1.5582666 9.25387695 -1.41723633 8.07666016 C-1.04756328 5.350727 -0.55306053 2.6930606 0 0 Z " fill="#FEFEFE" transform="translate(214,213)"/>
<path d="M0 0 C47.45156701 -1.03763751 47.45156701 -1.03763751 67.74658203 6.14404297 C69.44651482 6.69274314 71.14703316 7.23963267 72.84814453 7.78466797 C94.78736432 15.09558335 113.18990596 27.19339457 129.74658203 43.14404297 C130.45169922 43.78599609 131.15681641 44.42794922 131.88330078 45.08935547 C160.42960526 71.84065905 177.66803031 118.53031217 178.953125 157.05834961 C179.05490894 161.55528918 179.07293046 166.05062429 179.06225586 170.54858398 C179.05910588 173.3106274 179.08261658 176.07158475 179.10791016 178.83349609 C179.1694983 196.36039092 177.04299183 213.38819343 171.74658203 230.14404297 C171.45541504 231.07458496 171.16424805 232.00512695 170.86425781 232.96386719 C161.845205 261.3660893 148.72578954 287.76874002 128.74658203 310.14404297 C128.30717285 310.63694824 127.86776367 311.12985352 127.41503906 311.63769531 C124.23975263 315.18564222 121.00950102 318.6765679 117.74658203 322.14404297 C117.13041016 322.80275391 116.51423828 323.46146484 115.87939453 324.14013672 C92.20484944 348.66424683 57.87213031 367.66895057 23.48876953 369.64404297 C22.7868045 369.68464844 22.08483948 369.72525391 21.36160278 369.76708984 C19.86729867 369.85267498 18.37290008 369.93662431 16.87841797 370.01904297 C14.70397418 370.13947949 12.5299807 370.26627666 10.35595703 370.39404297 C-14.06684054 371.7965697 -38.46002733 372.29306717 -62.91687012 372.21270752 C-66.47175461 372.20220488 -70.02664721 372.19785424 -73.58154297 372.19287109 C-80.47218644 372.18236277 -87.36279992 372.16545658 -94.25341797 372.14404297 C-93.59810369 365.2993942 -92.83452487 358.47482951 -91.98388672 351.65185547 C-91.86297165 350.67647324 -91.74205658 349.701091 -91.61747742 348.69615173 C-91.22699134 345.55356758 -90.83420175 342.41127815 -90.44091797 339.26904297 C-90.30647278 338.19169891 -90.17202759 337.11435486 -90.0335083 336.00436401 C-88.36366798 322.64278593 -86.61717667 309.30168664 -84.65258789 295.97998047 C-83.37900472 287.25894915 -82.29506642 278.5200492 -81.25341797 269.76904297 C-79.55937997 255.53854836 -77.70498426 241.33465498 -75.78759766 227.13232422 C-75.22689615 222.96047793 -74.68050093 218.78681042 -74.13623047 214.61279297 C-72.30540409 200.58348013 -70.4576357 186.55739107 -68.51904297 172.54248047 C-68.36948151 171.46119873 -68.21992004 170.37991699 -68.06582642 169.26586914 C-67.76074204 167.06115162 -67.45561691 164.85643973 -67.15045166 162.6517334 C-66.99880554 161.55607056 -66.84715942 160.46040771 -66.69091797 159.33154297 C-66.53943298 158.23716919 -66.387948 157.14279541 -66.23187256 156.01525879 C-64.30742046 142.08999251 -62.47287339 128.16102814 -60.82974243 114.1998291 C-59.67257762 104.37641558 -58.33913164 94.59331661 -56.89550781 84.80834961 C-54.85442442 70.75051099 -53.16591284 56.6463759 -51.44726562 42.54614258 C-50.27673408 32.9900406 -49.05275258 23.44786651 -47.63232422 13.92529297 C-47.50897202 13.0954187 -47.38561981 12.26554443 -47.25852966 11.41052246 C-46.72993033 7.94043884 -46.14261349 4.53907259 -45.25341797 1.14404297 C-33.27085816 0.75154863 -21.28745208 0.45156608 -9.30096436 0.20770264 C-6.20052868 0.14293817 -3.10028719 0.07148728 0 0 Z " fill="#00488E" transform="translate(1066.25341796875,301.85595703125)"/>
</svg>
