<?xml version="1.0" encoding="UTF-8"?>
<svg version="1.1" xmlns="http://www.w3.org/2000/svg" width="1458" height="1458">
<path d="M0 0 C481.14 0 962.28 0 1458 0 C1458 481.14 1458 962.28 1458 1458 C976.86 1458 495.72 1458 0 1458 C0 976.86 0 495.72 0 0 Z " fill="#9C1D26" transform="translate(0,0)"/>
<path d="M0 0 C481.14 0 962.28 0 1458 0 C1458 481.14 1458 962.28 1458 1458 C976.86 1458 495.72 1458 0 1458 C0 976.86 0 495.72 0 0 Z M149 148 C149 532.12 149 916.24 149 1312 C529.49 1312 909.98 1312 1302 1312 C1302 927.88 1302 543.76 1302 148 C921.51 148 541.02 148 149 148 Z " fill="#FCFCFD" transform="translate(0,0)"/>
<path d="M0 0 C481.14 0 962.28 0 1458 0 C1458 481.14 1458 962.28 1458 1458 C976.86 1458 495.72 1458 0 1458 C0 976.86 0 495.72 0 0 Z M52 49 C51.14843477 60.4705289 51.14843477 60.4705289 50.87465084 71.91618186 C50.87324852 72.71146765 50.8718462 73.50675343 50.87040139 74.32613878 C50.86696162 76.95278171 50.87053747 79.57936413 50.87415886 82.20600605 C50.87311411 84.131981 50.87163166 86.05795576 50.86975449 87.98393008 C50.86586986 93.26752927 50.86818568 98.55111012 50.87153245 103.834709 C50.87407362 109.58940797 50.87080721 115.34410417 50.86828911 121.09880275 C50.86467798 131.18675668 50.86478671 141.27470527 50.86733627 151.36265945 C50.87006468 162.18849096 50.8706646 173.01431915 50.86859894 183.84015083 C50.86846977 184.52503153 50.86834059 185.20991222 50.86820751 185.91554688 C50.86767417 188.70552256 50.86712545 191.49549823 50.86655723 194.28547391 C50.86126521 220.28938995 50.86091157 246.29330389 50.86370468 272.29722023 C50.86640753 297.47520793 50.86745655 322.65319465 50.86618423 347.83118248 C50.86610675 349.41792264 50.86602959 351.00466279 50.86595276 352.59140295 C50.86564219 358.97113272 50.86532352 365.35086249 50.864993 371.73059226 C50.86407569 389.57798449 50.86350526 407.42537672 50.86320686 425.27276897 C50.86319322 426.08588757 50.86317957 426.89900617 50.86316551 427.73676472 C50.86275587 453.6707894 50.86388406 479.60481379 50.86605644 505.53883839 C50.86612669 506.38026952 50.86619694 507.22170065 50.86626932 508.0886297 C50.86741389 521.74756467 50.86863355 535.40649964 50.86985949 549.0654346 C50.87467416 602.76603601 50.87452742 656.46663493 50.86962891 710.16723633 C50.8684069 723.60657914 50.86719548 737.04592196 50.86605644 750.48526478 C50.86598599 751.31366812 50.86591555 752.14207146 50.86584296 752.99557794 C50.86366864 778.74413852 50.86277604 804.4926989 50.86320686 830.24125957 C50.86322045 831.05617507 50.86323403 831.87109056 50.86324803 832.71070047 C50.86356135 850.64912082 50.86419657 868.58754115 50.86511737 886.52596149 C50.86544628 892.95606854 50.86575941 899.38617559 50.86606808 905.81628264 C50.86614547 907.41510245 50.8662242 909.01392226 50.86630427 910.61274207 C50.86755268 935.60640064 50.86619136 960.60005809 50.86345413 985.59371651 C50.86062319 1011.73159794 50.86184928 1037.8694769 50.86698543 1064.00735799 C50.86753723 1066.88459168 50.868074 1069.76182537 50.86859894 1072.63905907 C50.86872914 1073.34475943 50.86885935 1074.05045979 50.8689935 1074.77754501 C50.87051624 1083.39140806 50.87062996 1092.00526882 50.86840172 1100.6191319 C50.84267699 1203.75009053 51.46563514 1306.86758204 52 1410 C496.84 1410 941.68 1410 1400 1410 C1400 960.87 1400 511.74 1400 49 C955.16 49 510.32 49 52 49 Z " fill="#9C1D26" transform="translate(0,0)"/>
<path d="M0 0 C296.34 0 592.68 0 898 0 C898 74.58 898 149.16 898 226 C804.35531994 226.02013078 804.35531994 226.02013078 775.33496094 226.02565002 C774.30000117 226.02584736 773.26504139 226.02604469 772.1987192 226.02624801 C737.2760343 226.03288846 702.35334934 226.03813263 667.43066406 226.04234314 C666.28854332 226.0424812 665.14642257 226.04261925 663.96969211 226.04276149 C639.13317118 226.04575617 614.29665024 226.0485261 589.46012926 226.05106533 C577.27582836 226.05231239 565.09152746 226.05360898 552.90722656 226.05493164 C551.69490596 226.0550624 550.48258537 226.05519316 549.23352778 226.05532788 C510.11822929 226.05956992 471.00293227 226.06706656 431.88763466 226.07629722 C391.6061129 226.08578556 351.32459195 226.09189824 311.04306909 226.09391499 C305.32039973 226.09420304 299.59773038 226.09452867 293.87506104 226.09487724 C292.74903778 226.09494467 291.62301453 226.09501209 290.46286936 226.09508156 C272.52173024 226.09625163 254.58059366 226.10085759 236.63945557 226.10683203 C218.4907102 226.11279924 200.34196729 226.11494845 182.19322097 226.11350138 C171.48326114 226.11275532 160.77331048 226.11463344 150.06335235 226.12079754 C142.82228411 226.12467044 135.58122156 226.12458215 128.34015285 226.12183181 C124.26999609 226.12038296 120.19985601 226.12011069 116.12970138 226.12488318 C77.41412965 226.16187637 38.71589572 225.4839487 0 225 C0 150.75 0 76.5 0 0 Z " fill="#FCFDFD" transform="translate(276,277)"/>
<path d="M0 0 C2.25761981 0.0017953 4.51523967 0.0035311 6.77285957 0.00521469 C7.91611482 0.00625084 9.05937006 0.00728699 10.2372694 0.00835454 C16.42042714 0.01279076 22.60358428 0.01120359 28.78674316 0.01045227 C39.42789375 0.00993513 50.06903744 0.01295934 60.710186 0.01869011 C71.83548386 0.02466587 82.9607792 0.02846769 94.08607864 0.02954292 C94.78524452 0.02961166 95.4844104 0.0296804 96.20476312 0.02975122 C99.75738212 0.03008969 103.31000112 0.03039103 106.86262013 0.0306781 C131.83972513 0.03276263 156.81682688 0.03945485 181.79393005 0.04898071 C206.01560957 0.05820761 230.23728819 0.06525326 254.45896912 0.06948853 C255.98967838 0.06975917 257.52038765 0.07002987 259.05109692 0.07030064 C270.90757464 0.07238705 282.76405238 0.0743384 294.62053013 0.0762552 C352.44916649 0.08564014 410.27779451 0.10576978 468.10643005 0.12442017 C468.10643005 75.36442017 468.10643005 150.60442017 468.10643005 228.12442017 C282.97643005 228.12442017 97.84643005 228.12442017 -92.89356995 228.12442017 C-92.89356995 153.21442017 -92.89356995 78.30442017 -92.89356995 1.12442017 C-29.91667854 -0.04181856 -29.91667854 -0.04181856 0 0 Z " fill="#FCFDFD" transform="translate(368.89356994628906,614.8755798339844)"/>
<path d="M0 0 C1.81582168 -0.00135981 3.63164309 -0.00314296 5.44746399 -0.00531006 C10.31476498 -0.00981326 15.18204444 -0.00812518 20.04934573 -0.00493097 C25.17393467 -0.00237288 30.29852194 -0.00475416 35.42311096 -0.00631714 C44.01580125 -0.00812771 52.6084829 -0.00576067 61.20117188 -0.00097656 C71.10847394 0.00447607 81.01575545 0.00269165 90.92305702 -0.00280297 C99.46963089 -0.00735141 108.0161986 -0.00797654 116.56277329 -0.0053643 C121.65010767 -0.00381261 126.73743241 -0.00357745 131.82476616 -0.00690079 C136.6028012 -0.00980518 141.38080987 -0.00775693 146.15884209 -0.00200653 C147.90344194 -0.00069317 149.64804404 -0.0010486 151.39264297 -0.0032692 C160.63527631 -0.01394262 169.75615941 0.13751286 178.95922852 1.12939453 C178.98265578 27.64304255 179.00025577 54.156689 179.01104069 80.67034531 C179.01618284 92.98287046 179.02318563 105.29538915 179.03466797 117.60791016 C179.04467865 128.34755211 179.05109705 139.08718938 179.05331701 149.82683587 C179.05461333 155.50604091 179.05763018 161.18523257 179.06495857 166.86443329 C179.07181984 172.22580828 179.07382524 177.58716458 179.0723362 182.94854355 C179.07260803 184.90101346 179.07455253 186.85348409 179.07843399 188.80595016 C179.08353026 191.50523775 179.08217013 194.20445788 179.07948303 196.90374756 C179.08385229 198.01866534 179.08385229 198.01866534 179.08830982 199.15610671 C179.06372078 208.50984992 178.42779944 217.75797601 177.95922852 227.12939453 C104.03922852 227.12939453 30.11922852 227.12939453 -46.04077148 227.12939453 C-46.06139648 190.19001953 -46.08202148 153.25064453 -46.10327148 115.19189453 C-46.11237549 103.50662354 -46.12147949 91.82135254 -46.13085938 79.78198242 C-46.13537598 65.56774902 -46.13537598 65.56774902 -46.13621521 58.92405701 C-46.13715093 54.26076283 -46.14091448 49.59747991 -46.14634705 44.93418884 C-46.15317157 38.99803393 -46.15526909 33.06189555 -46.15384376 27.12573707 C-46.1541421 24.93957167 -46.15614535 22.75340574 -46.15998662 20.5672437 C-46.16491167 17.62932618 -46.1637795 14.69147411 -46.161026 11.7535553 C-46.16393867 10.88514228 -46.16685133 10.01672926 -46.16985226 9.12200069 C-46.15489631 3.24351936 -46.15489631 3.24351936 -45.04077148 2.12939453 C-39.80849815 1.21359584 -34.59377028 0.84016214 -29.2933197 0.57498169 C-28.05057263 0.51179062 -28.05057263 0.51179062 -26.78271955 0.44732296 C-17.85450412 0.02619731 -8.93633582 -0.01147679 0 0 Z " fill="#FCFDFD" transform="translate(322.040771484375,955.87060546875)"/>
</svg>
