<?xml version="1.0" encoding="UTF-8"?>
<svg version="1.1" xmlns="http://www.w3.org/2000/svg" width="697" height="705">
<path d="M0 0 C2.14298712 -0.0018697 4.2859739 -0.00417104 6.42896014 -0.00686532 C12.30203975 -0.01297002 18.17510509 -0.0128513 24.04818714 -0.01167095 C30.38851126 -0.0114666 36.72883084 -0.01698889 43.06915283 -0.02172852 C55.48508576 -0.03002828 67.90101297 -0.03279602 80.31694832 -0.03334089 C90.41094364 -0.03380097 100.50493744 -0.03586206 110.59893227 -0.03904152 C113.5076349 -0.0399391 116.41633753 -0.04082892 119.32504016 -0.0417164 C120.04821397 -0.04193744 120.77138777 -0.04215849 121.51647594 -0.04238624 C141.84993333 -0.04853791 162.1833902 -0.05248706 182.51684856 -0.05204296 C183.28300623 -0.05202738 184.04916389 -0.0520118 184.83853846 -0.05199575 C188.72147759 -0.05191265 192.60441672 -0.05181361 196.48735585 -0.05171105 C197.64404145 -0.05168113 197.64404145 -0.05168113 198.82409443 -0.05165061 C200.38349369 -0.05161017 201.94289294 -0.05156837 203.5022922 -0.05152521 C227.75916861 -0.05091258 252.01603103 -0.05841784 276.27290344 -0.07209778 C303.54476265 -0.08747182 330.81661267 -0.09606321 358.08847648 -0.09513456 C360.99875089 -0.09505993 363.90902529 -0.09501122 366.8192997 -0.09498024 C367.53584768 -0.09496859 368.25239565 -0.09495693 368.99065721 -0.09494492 C380.50102168 -0.0949142 392.01137397 -0.10128873 403.52173483 -0.1099125 C415.09801983 -0.11840605 426.67428311 -0.11919465 438.25056996 -0.11280318 C444.51679414 -0.10954122 450.78297436 -0.10946969 457.04919434 -0.11815643 C462.79271547 -0.12603651 468.53615788 -0.12457457 474.27967713 -0.1158723 C476.35027914 -0.11434064 478.42088707 -0.11614079 480.4914821 -0.12173238 C513.1498011 -0.20403878 540.42041138 6.46875764 564.7311554 29.50871277 C571.72756711 36.75619189 577.06063584 45.43230361 582.0436554 54.13371277 C582.7036554 53.80371277 583.3636554 53.47371277 584.0436554 53.13371277 C584.0436554 251.46371277 584.0436554 449.79371277 584.0436554 654.13371277 C583.3836554 653.47371277 582.7236554 652.81371277 582.0436554 652.13371277 C581.11746399 653.58390808 581.11746399 653.58390808 580.17256165 655.06340027 C575.0139692 663.03474423 569.67180406 670.29175285 563.0436554 677.13371277 C562.25668274 678.03090027 562.25668274 678.03090027 561.45381165 678.94621277 C547.00278401 694.83131185 524.80069416 702.58813545 504.0436554 705.13371277 C501.01170464 705.27082059 497.98448445 705.27163094 494.94980717 705.26514053 C493.60262504 705.26821948 493.60262504 705.26821948 492.22822711 705.27136064 C489.21503431 705.2770206 486.20188736 705.27557462 483.18869019 705.27415466 C481.00790715 705.27673888 478.8271246 705.2797522 476.64634269 705.28315806 C470.65021148 705.2912248 464.65409224 705.29301746 458.65795624 705.29375553 C452.19213358 705.29560667 445.72631712 705.30315436 439.26049805 705.30989075 C424.38242128 705.32444918 409.50434581 705.33000056 394.6262632 705.33458269 C387.27049424 705.33692004 379.91472605 705.34052287 372.55895769 705.34427807 C347.36846388 705.3571131 322.1779705 705.36783186 296.98747349 705.37128067 C295.40660165 705.3715023 293.8257298 705.37172409 292.24485796 705.37194602 C290.66021313 705.37216666 289.0755683 705.37238714 287.49092346 705.37260747 C284.31196757 705.37305002 281.13301168 705.37349713 277.95405579 705.37394714 C277.16586151 705.37405653 276.37766723 705.37416593 275.56558828 705.37427863 C250.01823401 705.37790787 224.47090813 705.39382316 198.92356474 705.41713751 C171.89965666 705.44175416 144.87576481 705.45545438 117.8518452 705.45664859 C114.88309188 705.45682004 111.91433857 705.45703546 108.94558525 705.45728302 C107.84913702 705.45736667 107.84913702 705.45736667 106.73053833 705.45745202 C94.98562831 705.45860092 83.24074751 705.46960934 71.49584734 705.48417008 C59.68158543 705.49856307 47.86736403 705.50150455 36.05309571 705.4937301 C29.65726164 705.48982774 23.26152555 705.49073308 16.86570358 705.50478745 C11.00356548 705.51755098 5.14159873 705.51630718 -0.72053922 705.50419673 C-2.83433044 705.50224399 -4.9481339 705.50529848 -7.06190794 705.5140411 C-34.19304169 705.61909593 -57.85272067 699.99342905 -78.9563446 682.13371277 C-79.84386414 681.46468933 -79.84386414 681.46468933 -80.74931335 680.78215027 C-98.88029148 666.7424855 -109.27084178 642.67505808 -112.47399402 620.55973905 C-113.03122049 616.0181769 -113.09764073 611.53746015 -113.08777237 606.96646214 C-113.089825 606.07255159 -113.09187764 605.17864104 -113.09399247 604.2576423 C-113.09964311 601.26478548 -113.09820761 598.27197497 -113.0967865 595.27911377 C-113.09937125 593.11055477 -113.10238472 590.94199626 -113.1057899 588.77343839 C-113.11385032 582.81570185 -113.11564894 576.85797736 -113.11638737 570.90023601 C-113.1182396 564.47394862 -113.12578783 558.04766745 -113.13252258 551.62138367 C-113.14707573 536.83688206 -113.15263173 522.05238176 -113.15721453 507.26787428 C-113.15955246 499.9573824 -113.16315534 492.64689129 -113.16690991 485.33640002 C-113.17974422 460.29782292 -113.19046317 435.25924625 -113.19391251 410.22066593 C-113.19413414 408.64958148 -113.19435592 407.07849703 -113.19457786 405.50741258 C-113.1947985 403.93259442 -113.19501898 402.35777625 -113.19523931 400.78295809 C-113.19568185 397.62375327 -113.19612897 394.46454845 -113.19657898 391.30534363 C-113.19668837 390.52204752 -113.19679776 389.73875142 -113.19691047 388.93171907 C-113.20053965 363.54354297 -113.21645508 338.15539545 -113.23976934 312.7672303 C-113.26438967 285.90755925 -113.27808638 259.04790453 -113.27928042 232.18822187 C-113.27945187 229.23715969 -113.27966729 226.28609751 -113.27991486 223.33503532 C-113.27997062 222.60843321 -113.28002639 221.88183111 -113.28008385 221.13321075 C-113.28123242 209.46200991 -113.29223789 197.7908385 -113.30680191 186.11964758 C-113.3211996 174.37830383 -113.32413389 162.63700084 -113.31636193 150.89565063 C-113.3124613 144.5401908 -113.31335647 138.18482957 -113.32741928 131.82938194 C-113.34019315 126.00300593 -113.33893002 120.17680226 -113.32682857 114.35042637 C-113.32487761 112.25077904 -113.32792197 110.15111936 -113.33667293 108.05148936 C-113.44653147 79.89383402 -107.60892109 52.46886856 -87.4629364 31.58317566 C-85.97426675 30.0855707 -84.46805123 28.60801106 -82.9563446 27.13371277 C-82.14423523 26.31257996 -81.33212585 25.49144714 -80.4954071 24.64543152 C-57.9544978 2.96571975 -29.80463129 -0.02464698 0 0 Z " fill="#9E173A" transform="translate(112.95634460449219,-0.1337127685546875)"/>
<path d="M0 0 C36.63 0 73.26 0 111 0 C120.35773104 16.37602931 120.35773104 16.37602931 122.75 22.8125 C123.03383545 23.56184814 123.3176709 24.31119629 123.61010742 25.08325195 C130.55672408 44.02622516 132.28419636 63.29426524 132.33552551 83.30904198 C132.34395568 86.49571924 132.36458778 89.68212862 132.38806152 92.86872864 C132.43587004 99.64161155 132.46903189 106.4145219 132.5 113.1875 C132.53596947 121.03192455 132.578324 128.87621639 132.63594055 136.7205143 C132.65563999 139.82193072 132.66425234 142.92323889 132.67224121 146.02470398 C132.86585692 182.47661171 139.01156183 217.00941732 164 245 C164.62648438 245.75539063 165.25296875 246.51078125 165.8984375 247.2890625 C183.12257121 266.5555836 216.653847 278.45998058 242 280 C277.34641165 281.33753221 308.58890522 274.22914571 336 251 C337.00546875 250.15824219 338.0109375 249.31648437 339.046875 248.44921875 C361.65706162 228.9653519 376.73173778 200.50860637 381 171 C381.09775067 168.59695953 381.1458579 166.19164764 381.15821838 163.78665161 C381.16562535 162.73153061 381.16562535 162.73153061 381.17318195 161.65509403 C381.18847509 159.31059228 381.19689523 156.96611774 381.20532227 154.62158203 C381.21490723 152.93598697 381.22491768 151.25039428 381.23532104 149.56480408 C381.26230912 144.99713845 381.28335163 140.42946255 381.30332303 135.86176157 C381.32522027 131.08513941 381.35259065 126.30854868 381.37937927 121.5319519 C381.42925566 112.49047248 381.47421322 103.44897557 381.51740164 94.407462 C381.57605909 82.18705356 381.64231877 69.9666865 381.70815182 57.746315 C381.81164744 38.49757123 381.90498916 19.24879186 382 0 C423.25 0 464.5 0 507 0 C507 167.31 507 334.62 507 507 C465.75 507 424.5 507 382 507 C382 459.81 382 412.62 382 364 C369.79 367.96 357.58 371.92 345 376 C313.71788567 385.08190416 282.80386886 390.44770002 250.25 390.4375 C249.22219421 390.43823517 248.19438843 390.43897034 247.13543701 390.43972778 C229.59825671 390.40693244 213.1134705 389.07329729 196 385 C194.91187012 384.74831055 193.82374023 384.49662109 192.70263672 384.23730469 C165.80203835 377.8486637 139.54735585 366.05737369 117 350 C115.84942909 349.19854251 114.69836354 348.39779478 113.546875 347.59765625 C101.85975139 339.42428762 91.03587791 330.43210296 80.70019531 320.61230469 C79.56657742 319.53728852 78.42787878 318.46760489 77.28417969 317.40332031 C41.9676527 284.43989902 22.60105417 234.90202897 20.89016724 186.91970825 C20.75068664 180.00482666 20.7579212 173.0909802 20.79418945 166.17504883 C20.81259193 162.54436277 20.81469737 158.9139313 20.81445312 155.28320312 C20.81936524 152.94010199 20.82519222 150.59700255 20.83203125 148.25390625 C20.83314407 147.18596329 20.8342569 146.11802032 20.83540344 145.01771545 C20.87233018 139.10124717 21.15834424 133.28064423 21.7638855 127.39430237 C23.59058809 108.87075419 20.52758324 90.31655319 18 72 C17.80035645 70.53022705 17.80035645 70.53022705 17.59667969 69.03076172 C16.85501334 63.66236414 15.98820343 58.32839292 15 53 C14.76724365 51.72431152 14.76724365 51.72431152 14.52978516 50.42285156 C11.63808557 34.96540289 7.06238764 20.28113711 1.86035156 5.45410156 C1.22485526 3.64138623 0.60743662 1.82230985 0 0 Z " fill="#F9B80C" transform="translate(99,99)"/>
<path d="M0 0 C2.14298712 -0.0018697 4.2859739 -0.00417104 6.42896014 -0.00686532 C12.30203975 -0.01297002 18.17510509 -0.0128513 24.04818714 -0.01167095 C30.38851126 -0.0114666 36.72883084 -0.01698889 43.06915283 -0.02172852 C55.48508576 -0.03002828 67.90101297 -0.03279602 80.31694832 -0.03334089 C90.41094364 -0.03380097 100.50493744 -0.03586206 110.59893227 -0.03904152 C113.5076349 -0.0399391 116.41633753 -0.04082892 119.32504016 -0.0417164 C120.04821397 -0.04193744 120.77138777 -0.04215849 121.51647594 -0.04238624 C141.84993333 -0.04853791 162.1833902 -0.05248706 182.51684856 -0.05204296 C183.28300623 -0.05202738 184.04916389 -0.0520118 184.83853846 -0.05199575 C188.72147759 -0.05191265 192.60441672 -0.05181361 196.48735585 -0.05171105 C197.64404145 -0.05168113 197.64404145 -0.05168113 198.82409443 -0.05165061 C200.38349369 -0.05161017 201.94289294 -0.05156837 203.5022922 -0.05152521 C227.75916861 -0.05091258 252.01603103 -0.05841784 276.27290344 -0.07209778 C303.54476265 -0.08747182 330.81661267 -0.09606321 358.08847648 -0.09513456 C360.99875089 -0.09505993 363.90902529 -0.09501122 366.8192997 -0.09498024 C367.53584768 -0.09496859 368.25239565 -0.09495693 368.99065721 -0.09494492 C380.50102168 -0.0949142 392.01137397 -0.10128873 403.52173483 -0.1099125 C415.09801983 -0.11840605 426.67428311 -0.11919465 438.25056996 -0.11280318 C444.51679414 -0.10954122 450.78297436 -0.10946969 457.04919434 -0.11815643 C462.79271547 -0.12603651 468.53615788 -0.12457457 474.27967713 -0.1158723 C476.35027914 -0.11434064 478.42088707 -0.11614079 480.4914821 -0.12173238 C513.1498011 -0.20403878 540.42041138 6.46875764 564.7311554 29.50871277 C571.72756711 36.75619189 577.06063584 45.43230361 582.0436554 54.13371277 C582.7036554 53.80371277 583.3636554 53.47371277 584.0436554 53.13371277 C584.0436554 251.46371277 584.0436554 449.79371277 584.0436554 654.13371277 C583.3836554 653.47371277 582.7236554 652.81371277 582.0436554 652.13371277 C581.11746399 653.58390808 581.11746399 653.58390808 580.17256165 655.06340027 C575.0139692 663.03474423 569.67180406 670.29175285 563.0436554 677.13371277 C562.25668274 678.03090027 562.25668274 678.03090027 561.45381165 678.94621277 C547.00278401 694.83131185 524.80069416 702.58813545 504.0436554 705.13371277 C501.01170464 705.27082059 497.98448445 705.27163094 494.94980717 705.26514053 C493.60262504 705.26821948 493.60262504 705.26821948 492.22822711 705.27136064 C489.21503431 705.2770206 486.20188736 705.27557462 483.18869019 705.27415466 C481.00790715 705.27673888 478.8271246 705.2797522 476.64634269 705.28315806 C470.65021148 705.2912248 464.65409224 705.29301746 458.65795624 705.29375553 C452.19213358 705.29560667 445.72631712 705.30315436 439.26049805 705.30989075 C424.38242128 705.32444918 409.50434581 705.33000056 394.6262632 705.33458269 C387.27049424 705.33692004 379.91472605 705.34052287 372.55895769 705.34427807 C347.36846388 705.3571131 322.1779705 705.36783186 296.98747349 705.37128067 C295.40660165 705.3715023 293.8257298 705.37172409 292.24485796 705.37194602 C290.66021313 705.37216666 289.0755683 705.37238714 287.49092346 705.37260747 C284.31196757 705.37305002 281.13301168 705.37349713 277.95405579 705.37394714 C277.16586151 705.37405653 276.37766723 705.37416593 275.56558828 705.37427863 C250.01823401 705.37790787 224.47090813 705.39382316 198.92356474 705.41713751 C171.89965666 705.44175416 144.87576481 705.45545438 117.8518452 705.45664859 C114.88309188 705.45682004 111.91433857 705.45703546 108.94558525 705.45728302 C107.84913702 705.45736667 107.84913702 705.45736667 106.73053833 705.45745202 C94.98562831 705.45860092 83.24074751 705.46960934 71.49584734 705.48417008 C59.68158543 705.49856307 47.86736403 705.50150455 36.05309571 705.4937301 C29.65726164 705.48982774 23.26152555 705.49073308 16.86570358 705.50478745 C11.00356548 705.51755098 5.14159873 705.51630718 -0.72053922 705.50419673 C-2.83433044 705.50224399 -4.9481339 705.50529848 -7.06190794 705.5140411 C-34.19304169 705.61909593 -57.85272067 699.99342905 -78.9563446 682.13371277 C-79.84386414 681.46468933 -79.84386414 681.46468933 -80.74931335 680.78215027 C-98.88029148 666.7424855 -109.27084178 642.67505808 -112.47399402 620.55973905 C-113.03122049 616.0181769 -113.09764073 611.53746015 -113.08777237 606.96646214 C-113.089825 606.07255159 -113.09187764 605.17864104 -113.09399247 604.2576423 C-113.09964311 601.26478548 -113.09820761 598.27197497 -113.0967865 595.27911377 C-113.09937125 593.11055477 -113.10238472 590.94199626 -113.1057899 588.77343839 C-113.11385032 582.81570185 -113.11564894 576.85797736 -113.11638737 570.90023601 C-113.1182396 564.47394862 -113.12578783 558.04766745 -113.13252258 551.62138367 C-113.14707573 536.83688206 -113.15263173 522.05238176 -113.15721453 507.26787428 C-113.15955246 499.9573824 -113.16315534 492.64689129 -113.16690991 485.33640002 C-113.17974422 460.29782292 -113.19046317 435.25924625 -113.19391251 410.22066593 C-113.19413414 408.64958148 -113.19435592 407.07849703 -113.19457786 405.50741258 C-113.1947985 403.93259442 -113.19501898 402.35777625 -113.19523931 400.78295809 C-113.19568185 397.62375327 -113.19612897 394.46454845 -113.19657898 391.30534363 C-113.19668837 390.52204752 -113.19679776 389.73875142 -113.19691047 388.93171907 C-113.20053965 363.54354297 -113.21645508 338.15539545 -113.23976934 312.7672303 C-113.26438967 285.90755925 -113.27808638 259.04790453 -113.27928042 232.18822187 C-113.27945187 229.23715969 -113.27966729 226.28609751 -113.27991486 223.33503532 C-113.27997062 222.60843321 -113.28002639 221.88183111 -113.28008385 221.13321075 C-113.28123242 209.46200991 -113.29223789 197.7908385 -113.30680191 186.11964758 C-113.3211996 174.37830383 -113.32413389 162.63700084 -113.31636193 150.89565063 C-113.3124613 144.5401908 -113.31335647 138.18482957 -113.32741928 131.82938194 C-113.34019315 126.00300593 -113.33893002 120.17680226 -113.32682857 114.35042637 C-113.32487761 112.25077904 -113.32792197 110.15111936 -113.33667293 108.05148936 C-113.44653147 79.89383402 -107.60892109 52.46886856 -87.4629364 31.58317566 C-85.97426675 30.0855707 -84.46805123 28.60801106 -82.9563446 27.13371277 C-82.14423523 26.31257996 -81.33212585 25.49144714 -80.4954071 24.64543152 C-57.9544978 2.96571975 -29.80463129 -0.02464698 0 0 Z M-73.9563446 44.13371277 C-79.46209567 50.35880819 -83.66941072 56.96101198 -87.3313446 64.38371277 C-87.81401794 65.32827332 -87.81401794 65.32827332 -88.30644226 66.29191589 C-94.81025262 80.25567583 -94.39284267 95.97570749 -94.35075378 111.01281738 C-94.35565088 113.19510768 -94.36184445 115.37739538 -94.36921167 117.55967873 C-94.38553014 123.51831947 -94.38330982 129.47682719 -94.3778367 135.43548238 C-94.37515652 141.87667719 -94.38971673 148.31783733 -94.40193176 154.75901794 C-94.42358212 167.36310811 -94.42754772 179.96715766 -94.42574388 192.57126371 C-94.42436784 202.8195808 -94.42820287 213.06788398 -94.43566895 223.31619835 C-94.43671931 224.79146352 -94.43776692 226.26672869 -94.43881181 227.74199387 C-94.43933115 228.47437117 -94.4398505 229.20674847 -94.44038558 229.96131902 C-94.44090572 230.69507619 -94.44142586 231.42883336 -94.44196177 232.1848256 C-94.44248576 232.91986157 -94.44300975 233.65489754 -94.44354962 234.41220733 C-94.45812083 255.06896798 -94.46642072 275.72572353 -94.46179962 296.3824892 C-94.46162767 297.16028688 -94.46145571 297.93808455 -94.46127855 298.73945185 C-94.46038973 302.68114191 -94.45944492 306.62283196 -94.45848054 310.56452201 C-94.4582895 311.3472769 -94.45809847 312.1300318 -94.45790165 312.93650654 C-94.45751455 314.51942447 -94.45712423 316.1023424 -94.45673067 317.68526032 C-94.45076145 342.31224055 -94.46620045 366.93912678 -94.49833679 391.56608582 C-94.53445839 419.27017655 -94.5537405 446.9742077 -94.54879808 474.67832345 C-94.54832815 477.63547559 -94.54791788 480.59262774 -94.54754639 483.54977989 C-94.547444 484.27784145 -94.54734161 485.00590301 -94.54723613 485.75602705 C-94.54604417 496.71912629 -94.5579706 507.68216086 -94.57669067 518.64524269 C-94.59798463 531.12128036 -94.60126137 543.59717323 -94.58239108 556.07321731 C-94.57325506 562.43309082 -94.57202522 568.79269552 -94.59274673 575.15254784 C-94.61153905 580.9849884 -94.60686065 586.81694153 -94.58420092 592.64936402 C-94.58003604 594.74880691 -94.58414318 596.84828778 -94.59779686 598.9476904 C-94.75248901 624.49170615 -88.5409763 645.95443694 -70.49931335 664.68449402 C-51.38194877 683.13009176 -29.46661855 686.60230765 -4.03649902 686.5146637 C-1.83770936 686.51812536 0.36107857 686.52289332 2.55986291 686.52884543 C8.56849032 686.54131483 14.57697391 686.53520355 20.58560169 686.52588677 C27.07848046 686.51908009 33.57133506 686.52958546 40.06420898 686.53782654 C52.03636577 686.55095962 64.00847725 686.54931482 75.98063666 686.54109213 C87.04055579 686.5335336 98.10045823 686.5315809 109.16037941 686.53516006 C109.89514331 686.53538922 110.6299072 686.53561838 111.38693667 686.53585447 C114.36984803 686.53678855 117.35275939 686.53774375 120.33567073 686.53873377 C148.29153953 686.54790154 176.24737933 686.53960451 204.20324365 686.52344307 C229.02465619 686.50920281 253.84602255 686.51048495 278.66743469 686.52482605 C306.57800244 686.54089822 334.4885446 686.54725572 362.39911634 686.53798926 C365.37553711 686.53702715 368.35195789 686.53608863 371.32837868 686.53516006 C372.06120815 686.53492283 372.79403763 686.5346856 373.54907405 686.53444118 C384.6024373 686.53103262 395.65578201 686.53501229 406.70914268 686.54259872 C419.27833794 686.55118272 431.84747685 686.54873021 444.41666576 686.53275649 C450.82825674 686.52487651 457.23975403 686.52177774 463.6513443 686.53170395 C469.52283117 686.54065651 475.39413767 686.5357085 481.26560823 686.51977129 C483.38716103 686.51642596 485.50872913 686.51811195 487.63027205 686.52539866 C498.15761195 686.55877683 507.94962269 686.54951732 518.0436554 683.13371277 C519.2295929 682.76890808 520.4155304 682.40410339 521.6374054 682.02824402 C541.21848673 674.73797583 556.91914958 660.42338856 565.9186554 641.57121277 C570.64228981 630.23114008 573.19995751 619.33533954 573.17787647 607.07389259 C573.1802287 606.17944752 573.18258093 605.28500244 573.18500444 604.36345297 C573.19166763 601.36275785 573.19123703 598.3621063 573.19082642 595.36140442 C573.19412671 593.18958355 573.19785263 591.01776329 573.2019679 588.84594381 C573.21197718 582.8745478 573.21570297 576.90316185 573.21835721 570.93175864 C573.22226343 564.4925009 573.23184154 558.05325109 573.24057007 551.61399841 C573.2596728 536.79670043 573.26958917 521.97940126 573.27803075 507.16209394 C573.28224041 499.83589244 573.28746199 492.50969175 573.29271528 485.18349093 C573.31060435 460.09287781 573.32559896 435.00226444 573.33303547 409.91164589 C573.33351022 408.33702332 573.33398611 406.76240076 573.33446313 405.1877782 C573.33469951 404.40692673 573.33493588 403.62607525 573.33517942 402.82156162 C573.33638059 398.8655534 573.33759605 394.90954519 573.33882141 390.95353699 C573.33918164 389.77592624 573.33918164 389.77592624 573.33954914 388.57452537 C573.34743881 363.13115524 573.37086437 337.68783178 573.40337736 312.24448203 C573.4377086 285.32896139 573.45738968 258.41346805 573.46067971 231.49792516 C573.46109723 228.54066871 573.46157679 225.58341228 573.46210289 222.62615585 C573.46222608 221.89802409 573.46234927 221.16989233 573.4624762 220.41969597 C573.46480416 208.72332322 573.48044153 197.02700484 573.50094474 185.33065144 C573.5212442 173.56341354 573.52632831 161.79624626 573.5171741 150.02899404 C573.51263375 143.65933455 573.51450065 137.28985091 573.53393555 130.92021561 C573.55159829 125.08080409 573.55054396 119.24169633 573.53503826 113.40228145 C573.53266694 111.29789158 573.53696074 109.19348049 573.54886691 107.08912297 C573.62996362 91.79974252 572.78867547 76.4339108 565.2936554 62.69621277 C564.77714417 61.71177185 564.77714417 61.71177185 564.25019836 60.70744324 C561.14183409 54.96424904 557.46821415 49.94266017 553.0436554 45.13371277 C552.29471008 44.29324402 551.54576477 43.45277527 550.77412415 42.58683777 C537.42288113 28.35126363 519.2627046 19.84145916 499.80682704 19.04177348 C497.46179956 19.00546793 495.11871836 18.99916323 492.77341843 19.00507832 C491.8805324 19.00332528 490.98764637 19.00157224 490.06770319 18.99976608 C487.08439078 18.99512485 484.10112751 18.99756674 481.11781311 19 C478.95379002 18.99813109 476.78976727 18.99583006 474.62574506 18.99313468 C468.68534709 18.98702027 462.7449632 18.98714985 456.80456281 18.98832905 C450.39541231 18.98853315 443.98626632 18.98301346 437.57711792 18.97827148 C425.02288451 18.96996642 412.46865595 18.96720375 399.91442004 18.96665911 C389.70974849 18.96619929 379.50507846 18.96413953 369.30040741 18.96095848 C366.36136222 18.96006092 363.42231703 18.9591711 360.48327184 18.9582836 C359.752585 18.95806256 359.02189817 18.95784151 358.26906931 18.95761376 C337.7205568 18.95146091 317.17204481 18.94751306 296.62353134 18.94795704 C295.84905169 18.94797262 295.07457204 18.9479882 294.2766233 18.94800425 C290.35137588 18.94808735 286.42612846 18.94818639 282.50088105 18.94828895 C281.33156099 18.94831887 281.33156099 18.94831887 280.13861832 18.94834939 C278.56218547 18.94838983 276.98575263 18.94843163 275.40931979 18.94847479 C250.88426818 18.9490875 226.3592304 18.94158116 201.83418274 18.92790222 C174.27047841 18.91253473 146.70678316 18.90393639 119.14307427 18.90486544 C116.20277166 18.90494007 113.26246905 18.90498878 110.32216644 18.90501976 C109.59820744 18.90503141 108.87424844 18.90504307 108.12835129 18.90505508 C96.48896751 18.90508582 84.84959576 18.8987059 73.21021555 18.8900875 C61.50827519 18.88160209 49.80635632 18.8807993 38.10441414 18.88719682 C31.76769141 18.89046295 25.43101219 18.89051524 19.09429359 18.88184357 C13.28978593 18.87398196 7.48535628 18.87540662 1.68085054 18.8841277 C-0.41532971 18.88566342 -2.51151578 18.88384383 -4.60768917 18.87826762 C-31.59258473 18.81125589 -54.71576491 23.9131375 -73.9563446 44.13371277 Z " fill="#FEFDFD" transform="translate(112.95634460449219,-0.1337127685546875)"/>
<path d="M0 0 C3.48064416 2.51271222 6.75249742 5.19508721 10 8 C10.74636719 8.60199219 11.49273437 9.20398438 12.26171875 9.82421875 C31.04944279 25.46426128 42.10179783 49.26306001 46 73 C46.40970828 77.94679938 46.47853984 82.85052636 46.4375 87.8125 C46.42847656 89.12766602 46.41945313 90.44283203 46.41015625 91.79785156 C45.94236591 118.11755534 35.1870943 140.26896755 18 160 C17.47148437 160.61359375 16.94296875 161.2271875 16.3984375 161.859375 C2.82646172 176.47534891 -16.04737385 185.69079528 -35 191 C-35.62165039 191.18473877 -36.24330078 191.36947754 -36.88378906 191.55981445 C-44.41891595 193.55047741 -52.13495901 193.44086245 -59.875 193.4375 C-60.60854706 193.43823517 -61.34209412 193.43897034 -62.09786987 193.43972778 C-74.02097526 193.40834648 -84.80872904 192.30163634 -96 188 C-96.68755371 187.74831055 -97.37510742 187.49662109 -98.08349609 187.23730469 C-125.01564949 177.20635508 -147.21861422 156.337816 -159.27539062 130.30664062 C-168.81142119 108.52282693 -171.23074995 84.03489376 -165 61 C-164.73316406 60.00226563 -164.46632812 59.00453125 -164.19140625 57.9765625 C-160.06113221 44.28240947 -153.1187998 31.96762863 -144 21 C-143.29101562 20.13890625 -142.58203125 19.2778125 -141.8515625 18.390625 C-125.32479143 -0.82100057 -103.79018711 -12.54801549 -79 -17 C-77.84721558 -17.25692627 -77.84721558 -17.25692627 -76.67114258 -17.51904297 C-49.7219502 -22.37142474 -22.57908366 -14.5229543 0 0 Z " fill="#F9B80C" transform="translate(417,170)"/>
</svg>
