<svg xmlns="http://www.w3.org/2000/svg" width="150" height="40" viewBox="0 0 150 40">
    <g fill="none" fill-rule="evenodd">
        <g fill="#FFF" fill-rule="nonzero">
            <g>
                <g>
                    <path d="M52.617 8.594c0-1.888-.986-1.764-1.93-1.786v-.543c.817.038 1.657.038 2.478.038.881 0 2.079-.038 3.634-.038 5.44 0 8.401 3.63 8.401 7.351 0 2.08-1.217 7.31-8.654 7.31-1.07 0-2.059-.04-3.044-.04-.946 0-1.871.02-2.816.04v-.547c1.257-.126 1.87-.168 1.931-1.595V8.594zm2.058 9.853c0 1.618 1.157 1.806 2.185 1.806 4.54 0 6.028-3.423 6.028-6.553 0-3.927-2.52-6.762-6.574-6.762-.861 0-1.258.06-1.64.084v11.425zM65.931 20.38h.398c.59 0 1.008 0 1.008-.696v-5.688c0-.926-.313-1.052-1.092-1.469v-.337c.988-.295 2.164-.692 2.248-.758.115-.067.246-.103.38-.103.102 0 .142.125.142.292v8.064c0 .696.464.696 1.05.696h.356v.547c-.71 0-1.45-.041-2.205-.041-.755 0-1.511.021-2.29.041l.005-.549zm2.25-12.288c-.378.014-.732-.179-.925-.503-.193-.325-.193-.729 0-1.053.193-.325.547-.518.925-.504.56 0 1.019.45 1.029 1.01 0 .572-.458 1.039-1.03 1.05zM72.422 14.118c0-.775-.232-.985-1.217-1.382v-.4c.94-.29 1.865-.626 2.771-1.009.063 0 .125.041.125.208v1.368c1.2-.862 2.229-1.576 3.636-1.576 1.786 0 2.418 1.301 2.418 2.94v5.417c0 .695.463.695 1.049.695h.38v.548c-.738 0-1.472-.042-2.227-.042-.755 0-1.513.022-2.275.042v-.548h.378c.589 0 1.007 0 1.007-.695v-5.436c0-1.2-.734-1.786-1.931-1.786-.674 0-1.743.544-2.439 1.008v6.214c0 .695.465.695 1.054.695h.377v.548c-.735 0-1.472-.042-2.23-.042s-1.511.022-2.268.042v-.548h.381c.587 0 1.007 0 1.007-.695l.004-5.566zM83.18 15.13c-.045.189-.045.503 0 1.217.123 1.997 1.407 3.635 3.085 3.635 1.156 0 2.062-.63 2.844-1.409l.293.295c-.967 1.28-2.163 2.373-3.885 2.373-3.342 0-4.013-3.234-4.013-4.579 0-4.123 2.773-5.335 4.242-5.335 1.706 0 3.532 1.07 3.555 3.296.003.127-.004.254-.019.38l-.192.126h-5.91zm3.719-.675c.522 0 .584-.273.584-.523 0-1.073-.65-1.934-1.827-1.934-1.28 0-2.163.944-2.417 2.457h3.66zM89.774 20.38h.569c.587 0 1.004 0 1.004-.696v-5.9c0-.651-.775-.778-1.09-.947v-.311c1.532-.653 2.375-1.199 2.559-1.199.123 0 .187.061.187.273v1.886h.044c.524-.82 1.407-2.163 2.688-2.163.525 0 1.196.355 1.196 1.112 0 .569-.397 1.073-.987 1.073-.653 0-.653-.506-1.387-.506-.356 0-1.532.484-1.532 1.745v4.933c0 .695.418.695 1.008.695h1.176v.547c-1.156-.02-2.037-.04-2.94-.04-.863 0-1.744.02-2.5.04l.005-.543zM97.86 18.007c.275 1.385 1.115 2.56 2.65 2.56 1.237 0 1.696-.758 1.696-1.492 0-2.478-4.574-1.683-4.574-5.062 0-1.179.945-2.689 3.256-2.689.833.02 1.651.228 2.393.609l.142 2.143h-.483c-.21-1.324-.946-2.08-2.291-2.08-.84 0-1.637.484-1.637 1.386 0 2.46 4.873 1.706 4.873 5 0 1.384-1.113 2.856-3.613 2.856-.898-.026-1.776-.27-2.56-.71l-.231-2.418.38-.103zM122.861 10.073h-.525c-.398-2.457-2.142-3.444-4.493-3.444-2.417 0-5.927 1.617-5.927 6.656 0 4.246 3.03 7.292 6.257 7.292 2.079 0 3.804-1.422 4.225-3.635l.48.126-.48 3.067c-.883.547-3.26 1.113-4.647 1.113-4.915 0-8.02-3.172-8.02-7.897 0-4.307 3.84-7.395 7.963-7.395 1.706 0 3.339.548 4.957 1.114l.21 3.003zM123.613 20.38h.403c.587 0 1.008 0 1.008-.696V7.988c0-1.366-.316-1.409-1.113-1.639v-.337c.746-.237 1.47-.54 2.164-.904.144-.095.299-.173.46-.232.128 0 .168.126.168.297v14.51c0 .696.464.696 1.052.696h.356v.548c-.711 0-1.448-.042-2.207-.042-.76 0-1.509.022-2.29.042v-.548zM137.103 19.77c0 .379.23.399.588.399.251 0 .568-.02.841-.02v.446c-.905.084-2.626.525-3.028.65l-.104-.062v-1.707c-1.259 1.028-2.228 1.762-3.72 1.762-1.138 0-2.308-.734-2.308-2.495v-5.381c0-.547-.085-1.074-1.258-1.176v-.4c.758-.022 2.433-.142 2.709-.142.231 0 .231.142.231.609v5.419c0 .628 0 2.436 1.828 2.436.71 0 1.658-.548 2.54-1.28v-5.655c0-.427-1.009-.649-1.763-.862v-.377c1.89-.126 3.067-.293 3.27-.293.169 0 .169.143.169.379l.005 7.75zM141.282 12.837c.84-.71 1.977-1.51 3.129-1.51 2.437 0 3.907 2.123 3.907 4.408 0 2.75-2.016 5.503-5.024 5.503-1.554 0-2.37-.503-2.917-.734l-.63.482-.44-.23c.188-1.238.283-2.488.285-3.74v-9.03c0-1.367-.315-1.41-1.114-1.64V6.01c.747-.236 1.472-.538 2.164-.904.145-.096.3-.173.464-.232.127 0 .166.127.166.297l.01 7.667zm0 5.715c0 .8.755 2.143 2.166 2.143 2.25 0 3.194-2.207 3.194-4.077 0-2.268-1.724-4.156-3.362-4.156-.78 0-1.43.503-1.998.988v5.102zM50.657 33.138h.16c.41 0 .846-.054.846-.65v-5.987c0-.596-.436-.652-.846-.652h-.16v-.345c.446 0 1.137.045 1.693.045s1.256-.045 1.793-.045v.353h-.16c-.41 0-.854.055-.854.65v5.989c0 .595.437.65.853.65h.161v.345c-.549 0-1.236-.046-1.806-.046-.57 0-1.234.046-1.68.046v-.353z" transform="translate(-989.000000, -2179.000000) translate(0.000000, 1889.000000) translate(989.000000, 290.000000)"/>
                    <path d="M54.143 33.535c-.553 0-1.237-.044-1.806-.044-.56 0-1.231.044-1.68.044h-.05v-.44h.21c.414-.01.792-.045.795-.604v-5.987c0-.56-.381-.596-.795-.605h-.21v-.44h.05c.449 0 1.137.045 1.693.045.569 0 1.253-.044 1.793-.044h.05v.44h-.21c-.414.008-.794.045-.795.604v5.987c0 .56.38.595.796.605h.209v.439h-.05zm-.05-.097v-.244h-.11c-.409 0-.896-.071-.898-.703v-5.987c0-.632.49-.702.897-.702h.11v-.244c-.528 0-1.189.045-1.743.045-.544 0-1.2-.042-1.643-.045v.244h.11c.406 0 .894.07.894.702v5.987c0 .632-.488.703-.894.703h-.11v.244c.443 0 1.088-.047 1.63-.047.557 0 1.218.043 1.756.047h.001zM62.002 31.231l.023-.022v-4.286c0-.937-.653-1.074-.995-1.074h-.25v-.345c.537 0 1.064.045 1.6.045.468 0 .939-.045 1.404-.045v.353h-.17c-.48 0-1.019.09-1.019 1.45v5.201c-.006.386.018.771.07 1.154h-.435l-5.886-6.56v4.708c0 .996.194 1.335 1.074 1.335h.193v.346c-.49 0-.982-.046-1.474-.046s-1.038.046-1.553.046v-.346h.16c.788 0 1.03-.533 1.03-1.449v-4.813c0-.275-.11-.538-.305-.731-.196-.193-.46-.3-.736-.295h-.15v-.346c.435 0 .881.045 1.315.045.342 0 .675-.045 1.018-.045l5.086 5.72z" transform="translate(-989.000000, -2179.000000) translate(0.000000, 1889.000000) translate(989.000000, 290.000000)"/>
                    <path d="M62.658 33.706l-.471-.017-5.801-6.466v4.58c.014.995.164 1.28 1.025 1.29h.246v.442h-.053c-.493 0-.985-.044-1.474-.044-.51 0-1.036.044-1.555.044h-.05v-.44h.213c.755-.007.97-.491.98-1.403V26.88c0-.262-.106-.514-.293-.698-.187-.184-.44-.285-.702-.282h-.2v-.44h.05c.438 0 .883.045 1.315.045.338 0 .67-.044 1.056-.027l5.023 5.652v-4.206c0-.91-.612-1.018-.947-1.027h-.298v-.439h.052c.539 0 1.066.044 1.6.044.464 0 .934-.044 1.404-.044h.053v.44h-.222c-.474.014-.956.056-.968 1.403V32.5c-.007.383.015.767.066 1.146l.01.059h-.06zm-.435-.101h.38c-.048-.366-.068-.735-.06-1.104V27.3c0-1.372.568-1.5 1.065-1.5h.122v-.245c-.452 0-.903.046-1.357.046-.523 0-1.032-.043-1.551-.046v.245h.2c.353 0 1.046.155 1.046 1.123l-.015 4.321-.024.022-.038.037-5.082-5.748c-.34 0-.671.046-1.018.046-.427 0-.853-.043-1.263-.046v.245h.101c.288-.004.564.108.769.31.204.203.32.478.319.766v4.81c0 .916-.255 1.5-1.077 1.502h-.11v.247c.494 0 .996-.046 1.502-.046.48 0 .955.04 1.422.046v-.244h-.142c-.9 0-1.123-.393-1.123-1.388v-4.835l5.935 6.64-.001-.003zm-.22-2.374l.035-.032-.036.032zM65.489 26.075c-.853 0-.889.207-1.062 1.041h-.342c.046-.32.103-.64.143-.972.045-.322.067-.646.068-.97h.266c.092.343.376.33.686.33h5.897c.309 0 .595-.01.617-.353l.273.046c-.042.307-.09.615-.123.925-.034.31-.025.618-.025.926l-.34.128c-.024-.427-.082-1.1-.847-1.1h-1.873v6.081c0 .883.401.981.949.981h.216v.346c-.445 0-1.247-.046-1.863-.046-.685 0-1.487.046-1.934.046v-.346h.215c.632 0 .949-.054.949-.955v-6.108h-1.87z" transform="translate(-989.000000, -2179.000000) translate(0.000000, 1889.000000) translate(989.000000, 290.000000)"/>
                    <path d="M69.996 33.535c-.45 0-1.25-.044-1.864-.044-.685 0-1.483.044-1.934.044h-.047v-.44h.26c.63-.015.885-.024.898-.91v-6.058h-1.826v-.097h1.925v6.156c0 .915-.368 1.008-.995 1.008h-.166v.241c.45 0 1.218-.044 1.882-.044.596 0 1.36.042 1.812.044v-.241h-.165c-.553 0-.995-.134-.995-1.034v-6.133h1.926c.767 0 .868.653.892 1.078l.249-.092c0-.296 0-.596.021-.898.031-.293.074-.584.118-.877l-.173-.028c-.057.33-.377.35-.663.345h-5.955c-.27 0-.562-.013-.664-.33h-.19c0 .31-.023.62-.068.927-.032.313-.083.616-.126.916h.243c.152-.795.249-1.055 1.1-1.04v.096c-.843.018-.824.158-1.013 1.004v.038h-.442l.008-.058c.044-.319.104-.639.142-.971.047-.32.07-.64.07-.963v-.051h.361l.009.037c.078.284.284.284.58.297h5.955c.317 0 .55-.013.569-.31v-.053l.052.01.322.05v.05c-.044.307-.09.614-.123.92-.022.307-.022.616-.022.924v.036l-.035.012-.403.143v-.069c-.032-.426-.077-1.052-.798-1.052h-1.826v6.033c.012.864.354.923.9.936h.265v.448h-.066zM72.407 33.138h.159c.41 0 .844-.054.844-.65v-5.987c0-.596-.426-.652-.844-.652h-.16v-.345c.694 0 1.887.045 2.844.045.957 0 2.149-.045 2.925-.045-.018.492-.008 1.248.026 1.75l-.346.091c-.054-.742-.192-1.335-1.392-1.335h-1.585v2.986h1.356c.687 0 .838-.385.903-1.004h.342c-.022.447-.033.89-.033 1.337 0 .446.011.869.033 1.302l-.342.069c-.065-.686-.1-1.138-.891-1.138h-1.368v2.662c0 .744.66.744 1.39.744 1.374 0 1.978-.091 2.321-1.394l.319.08c-.143.607-.285 1.21-.387 1.817-.731 0-2.046-.046-3.076-.046-1.03 0-2.389.046-3.038.046v-.333z" transform="translate(-989.000000, -2179.000000) translate(0.000000, 1889.000000) translate(989.000000, 290.000000)"/>
                    <path d="M78.52 33.535c-.734 0-2.048-.047-3.075-.047-1.03 0-2.386.047-3.038.047h-.052v-.44h.21c.413-.008.791-.045.796-.604v-5.987c0-.558-.383-.595-.795-.605h-.21v-.44h.05c.696 0 1.887.045 2.844.045.96 0 2.148-.044 2.925-.044h.051v.05c-.01.172-.014.374-.014.593 0 .392.014.826.036 1.15v.041l-.037.011-.401.106v-.06c-.068-.74-.165-1.28-1.344-1.29h-1.54v2.893h1.311c.66 0 .775-.343.853-.959v-.044h.44v.05c-.024.446-.037.89-.037 1.336 0 .427.013.868.037 1.303v.04l-.041.01-.399.078v-.053c-.078-.698-.082-1.079-.841-1.089h-1.323v2.616c0 .696.6.692 1.345.696 1.378-.007 1.928-.076 2.275-1.36l.013-.047.049.01.365.096-.01.047c-.142.604-.284 1.21-.387 1.813l-.007.04-.048-.002zm-.042-.1c.1-.575.23-1.154.371-1.729l-.226-.057c-.342 1.28-1.004 1.394-2.355 1.384-.72 0-1.441 0-1.444-.793v-2.715h1.422c.797-.01.878.474.934 1.125l.247-.051c-.02-.427-.03-.845-.03-1.264 0-.427.01-.854.03-1.29h-.247c-.063.599-.247 1.015-.946 1.007h-1.41v-3.095h1.64c1.188 0 1.387.608 1.435 1.324l.248-.065c-.02-.324-.031-.735-.031-1.116 0-.2 0-.383.01-.545-.778 0-1.936.046-2.876.046-.938 0-2.096-.043-2.795-.046v.245h.11c.407 0 .895.07.897.7v5.988c0 .632-.49.7-.896.703h-.111v.242c.664 0 1.99-.044 2.986-.044 1.008 0 2.294.042 3.033.044l.004.002zM80.453 26.717c0-.836-.458-.868-.813-.868h-.208v-.345c.366 0 1.075.045 1.775.045s1.233-.045 1.84-.045c1.437 0 2.717.388 2.717 2.013 0 1.028-.682 1.655-1.585 2.014l1.953 2.922c.32.485.546.62 1.108.685v.346c-.377 0-.742-.046-1.119-.046s-.722.046-1.075.046c-.877-1.179-1.672-2.417-2.379-3.706h-.75v2.447c0 .883.409.913.934.913h.209v.346c-.656 0-1.317-.046-1.97-.046-.547 0-1.085.046-1.658.046v-.346h.202c.427 0 .814-.19.814-.614l.005-5.807zm1.463 2.65h.562c1.145 0 1.76-.426 1.76-1.781 0-1.016-.652-1.67-1.669-1.67-.217.004-.433.02-.648.047l-.005 3.404z" transform="translate(-989.000000, -2179.000000) translate(0.000000, 1889.000000) translate(989.000000, 290.000000)"/>
                    <path d="M87.24 33.535c-.382 0-.746-.044-1.123-.044-.347 0-.711.044-1.112.027-.871-1.174-1.662-2.405-2.366-3.686h-.674v2.396c.011.86.357.853.886.868h.256v.439h-.052c-.654 0-1.32-.044-1.966-.044-.546 0-1.08.044-1.657.044h-.047v-.44h.25c.41 0 .756-.183.76-.568V26.72c-.009-.81-.405-.81-.76-.82h-.255v-.44h.047c.372 0 1.076.044 1.774.044.681 0 1.232-.044 1.84-.044 1.44 0 2.767.4 2.77 2.059 0 1.032-.684 1.676-1.564 2.035l1.92 2.875c.32.475.517.594 1.073.667h.043v.439h-.043zm-5.33-3.805h.78l.014.025c.702 1.275 1.483 2.504 2.338 3.68.35 0 .71-.046 1.07-.046.366 0 .72.038 1.074.044v-.25c-.536-.066-.786-.227-1.098-.7l-1.99-2.976.058-.025c.893-.352 1.554-.962 1.557-1.966 0-1.584-1.236-1.954-2.67-1.96-.603 0-1.155.045-1.84.045-.674 0-1.351-.043-1.724-.046v.245h.157c.355 0 .853.058.853.917v5.807c0 .46-.427.667-.853.667h-.157v.242c.55 0 1.07-.044 1.606-.044.64 0 1.28.042 1.918.044v-.242h-.157c-.52 0-.986-.064-.986-.966V29.73h.05zm0-.313h-.05v-3.5h.044c.218-.028.437-.042.657-.043 1.039 0 1.717.675 1.719 1.717 0 1.364-.659 1.83-1.81 1.83h-.56v-.004zm.56-.098c1.13-.011 1.706-.402 1.706-1.732 0-.995-.627-1.617-1.621-1.622-.2 0-.401.014-.6.042v3.312h.515zM95 31.231l.021-.022v-4.286c0-.937-.651-1.074-.995-1.074h-.252v-.345c.539 0 1.06.045 1.601.045.47 0 .937-.045 1.406-.045v.353h-.169c-.482 0-1.02.09-1.02 1.45v5.201c-.007.386.016.771.067 1.154h-.426l-5.887-6.56v4.708c0 .996.195 1.335 1.075 1.335h.195v.346c-.494 0-.986-.046-1.476-.046-.515 0-1.041.046-1.554.046v-.346h.156c.792 0 1.031-.533 1.031-1.449v-4.813c0-.275-.109-.538-.304-.731-.196-.193-.46-.3-.735-.295h-.143v-.346c.427 0 .882.045 1.314.045.342 0 .673-.045 1.017-.045L95 31.231z" transform="translate(-989.000000, -2179.000000) translate(0.000000, 1889.000000) translate(989.000000, 290.000000)"/>
                    <path d="M95.662 33.706l-.469-.017-5.801-6.466v4.58c.014.995.165 1.28 1.026 1.29h.243v.442h-.05c-.494 0-.986-.047-1.474-.047-.512 0-1.04.047-1.554.047h-.054v-.44h.21c.755 0 .973-.491.98-1.404v-4.812c0-.263-.104-.515-.292-.7-.187-.184-.44-.285-.703-.28h-.202v-.44h.054c.435 0 .883.045 1.314.045.337 0 .667-.044 1.049-.031l5.027 5.656v-4.206c0-.91-.612-1.021-.945-1.027h-.301v-.439h.05c.54 0 1.066.044 1.6.044.466 0 .935-.044 1.406-.044h.05v.44h-.218c-.472.01-.958.056-.971 1.403V32.5c-.008.383.015.767.068 1.146v.059h-.043zm-.426-.101h.374c-.045-.366-.065-.735-.06-1.104V27.3c0-1.372.579-1.499 1.07-1.5h.119v-.245c-.45 0-.902.046-1.355.046-.525 0-1.036-.043-1.552-.046v.245h.202c.351 0 1.045.155 1.045 1.123l-.015 4.321-.022.022-.037.038-5.086-5.749c-.34 0-.672.046-1.017.046-.426 0-.853-.043-1.265-.046v.245h.1c.287-.004.564.108.769.31.204.202.319.478.318.766v4.81c0 .918-.259 1.5-1.079 1.503h-.108v.242c.495 0 1.004-.044 1.506-.044.476 0 .951.041 1.422.044v-.242h-.143c-.9 0-1.126-.39-1.127-1.387v-4.835l5.94 6.64v-.002zm-.23-2.374l.036-.032-.037.032zM98.624 31.85c-.115.387-.254.687-.254.89 0 .344.483.398.853.398h.126v.346c-.459-.024-.927-.046-1.385-.046-.412 0-.821.022-1.232.046v-.346h.066c.46.003.866-.3.996-.74l1.831-5.245c.18-.462.322-.937.427-1.422.362-.128.711-.292 1.04-.49.03-.013.06-.02.092-.022.03-.005.062.008.08.033.035.093.068.195.105.285l2.101 5.972c.142.398.275.823.427 1.166.142.32.378.453.755.453h.067v.346c-.512-.024-1.028-.046-1.576-.046-.547 0-1.137.022-1.713.046v-.346h.126c.26 0 .711-.042.711-.328-.043-.283-.12-.56-.23-.825l-.445-1.325h-2.605l-.363 1.2zm1.668-5.065h-.024l-1.064 3.235h2.133l-1.045-3.235z" transform="translate(-989.000000, -2179.000000) translate(0.000000, 1889.000000) translate(989.000000, 290.000000)"/>
                    <path d="M104.71 33.535c-.512-.021-1.025-.047-1.573-.047-.558 0-1.127.026-1.713.047h-.051v-.448h.178c.263 0 .654-.058.654-.284-.043-.277-.118-.547-.224-.807l-.435-1.294h-2.522l-.357 1.154c-.117.39-.25.694-.25.878 0 .285.426.347.812.347h.17v.454h-.051c-.458-.021-.926-.047-1.38-.047-.41 0-.823.026-1.232.047h-.05v-.448h.115c.439.002.825-.289.944-.71l1.832-5.248c.18-.473.33-.955.453-1.446.361-.132.71-.297 1.04-.493.034-.016.072-.026.11-.027.05-.002.098.024.125.068l.103.284 2.106 5.98c.135.4.272.823.42 1.16.132.306.342.426.71.426h.119v.454h-.054.001zm-3.238-.102c.57-.019 1.12-.042 1.665-.042.532 0 1.03.023 1.528.042v-.24h-.019c-.39 0-.66-.15-.802-.486-.142-.347-.284-.77-.426-1.17l-2.105-5.98c-.035-.09-.07-.192-.098-.275-.011-.011-.007-.011-.017-.011h-.021c-.023.001-.045.007-.066.015-.318.196-.661.35-1.02.458-.103.485-.245.96-.426 1.422l-1.827 5.248c-.138.46-.56.776-1.041.777h-.017v.239c.39-.019.786-.041 1.183-.041.442 0 .894.022 1.33.04v-.238h-.072c-.374 0-.893-.044-.907-.45 0-.227.142-.521.253-.905l.05.014-.05-.016.377-1.221h2.663l.458 1.358c.113.268.192.55.233.839-.017.35-.497.375-.755.38h-.078v.24l.007.003zm-2.337-3.359l1.095-3.334h.062v.048h-.011.011v-.048h.034l1.085 3.334h-2.276zm.142-.1h2l-.995-3.064-1.005 3.064zm.968-3.17l.027-.009-.027.009zM105.218 26.075c-.853 0-.89.207-1.064 1.041h-.347c.047-.32.105-.64.142-.972.047-.321.07-.645.07-.97h.273c.092.343.378.33.685.33h5.899c.308 0 .593-.01.615-.353l.275.046c-.043.307-.087.615-.124.925-.037.31-.027.618-.027.926l-.34.128c-.02-.427-.08-1.1-.844-1.1h-1.875v6.081c0 .883.4.981.949.981h.215v.346c-.444 0-1.243-.046-1.862-.046-.685 0-1.487.046-1.934.046v-.346h.22c.63 0 .95-.054.95-.955v-6.108h-1.876z" transform="translate(-989.000000, -2179.000000) translate(0.000000, 1889.000000) translate(989.000000, 290.000000)"/>
                    <path d="M109.718 33.535c-.445 0-1.245-.044-1.861-.044-.683 0-1.482.044-1.934.044h-.047v-.44h.266c.63-.015.882-.024.897-.91v-6.058h-1.821v-.097h1.92v6.156c0 .915-.368 1.005-.995 1.008h-.167v.244c.452 0 1.218-.047 1.882-.047.597 0 1.362.042 1.815.047v-.244h-.167c-.55 0-.995-.134-.995-1.034v-6.133h1.924c.77 0 .866.653.89 1.078l.247-.092c0-.296 0-.596.025-.896.03-.295.076-.586.116-.876l-.17-.031c-.055.33-.376.35-.663.345h-5.957c-.268 0-.56-.013-.664-.334h-.186c-.002.312-.026.623-.071.931-.031.316-.087.616-.13.916h.248c.15-.795.247-1.056 1.103-1.04v.096c-.853.015-.829.158-1.015 1.004l-.008.038h-.443l.008-.058c.046-.319.105-.639.142-.969.045-.32.067-.642.067-.965v-.051h.362l.009.037c.08.284.291.284.581.297h5.957c.315 0 .549-.013.569-.31v-.053l.055.01.324.05-.008.05c-.05.307-.092.614-.126.92-.02.307-.02.616-.02.924v.036l-.036.012-.406.143v-.069c-.028-.426-.075-1.052-.797-1.052h-1.826v6.033c.011.864.354.923.899.936h.265v.448h-.058zM112.187 33.138h.159c.414 0 .853-.054.853-.65v-5.987c0-.596-.434-.652-.853-.652h-.16v-.345c.447 0 1.131.045 1.691.045s1.257-.045 1.798-.045v.353h-.161c-.414 0-.853.055-.853.65v5.989c0 .595.436.65.853.65h.16v.345c-.55 0-1.235-.046-1.807-.046-.571 0-1.234.046-1.68.046v-.353z" transform="translate(-989.000000, -2179.000000) translate(0.000000, 1889.000000) translate(989.000000, 290.000000)"/>
                    <path d="M115.675 33.535c-.553 0-1.237-.047-1.808-.047-.56 0-1.234.047-1.68.047h-.049v-.44h.208c.414-.008.792-.045.795-.604v-5.987c0-.558-.381-.596-.795-.605h-.208v-.44h.049c.446 0 1.137.045 1.69.045.57 0 1.256-.044 1.798-.044h.045v.44h-.206c-.417.008-.795.046-.798.604v5.987c0 .56.381.596.798.605h.206v.439h-.045zm-.053-.1v-.241h-.108c-.41 0-.896-.071-.896-.703v-5.987c0-.632.486-.702.896-.702h.108v-.244c-.527 0-1.186.045-1.745.045-.541 0-1.198-.042-1.64-.045v.244h.109c.407 0 .896.07.896.702v5.987c0 .632-.49.703-.896.703h-.11v.241c.443 0 1.087-.044 1.631-.044.555 0 1.218.042 1.755.044zM120.232 25.333c2.436 0 4.38 1.51 4.38 3.945 0 2.63-1.886 4.376-4.322 4.376s-4.273-1.643-4.273-4.103c-.016-1.123.423-2.205 1.217-3 .794-.794 1.875-1.233 2.998-1.218zm.172 7.82c2.22 0 2.604-1.954 2.604-3.62 0-1.667-.9-3.698-2.799-3.698-1.999 0-2.593 1.783-2.593 3.312 0 2.05.937 4.005 2.788 4.005v.002z" transform="translate(-989.000000, -2179.000000) translate(0.000000, 1889.000000) translate(989.000000, 290.000000)"/>
                    <path d="M115.965 29.554c-.014-1.136.431-2.229 1.234-3.032.803-.803 1.896-1.248 3.032-1.234v.1c-1.111-.017-2.181.416-2.967 1.201-.786.786-1.22 1.855-1.204 2.966 0 2.431 1.829 4.051 4.229 4.054 2.41 0 4.266-1.725 4.274-4.328 0-2.404-1.915-3.89-4.332-3.892v-.101c2.454 0 4.423 1.528 4.426 3.993 0 2.657-1.91 4.423-4.368 4.429-2.444 0-4.32-1.67-4.326-4.155l.002-.001zm1.6-.401c0-1.538.607-3.365 2.644-3.365 1.944 0 2.844 2.065 2.844 3.746 0 1.666-.394 3.668-2.655 3.668v-.094c2.176 0 2.551-1.906 2.56-3.573 0-1.656-.893-3.642-2.752-3.644-1.96 0-2.54 1.742-2.543 3.263 0 2.038.93 3.949 2.738 3.954v.096c-1.897 0-2.835-1.991-2.844-4.05l.007-.001zM132.316 31.231l.02-.022v-4.286c0-.937-.65-1.074-.994-1.074h-.245v-.345c.533 0 1.06.045 1.597.045.47 0 .938-.045 1.406-.045v.353h-.172c-.48 0-1.018.09-1.018 1.45v5.201c-.006.386.017.771.07 1.154h-.437l-5.885-6.56v4.708c0 .996.195 1.335 1.076 1.335h.193v.346c-.491 0-.982-.046-1.474-.046-.515 0-1.04.046-1.557.046v-.346h.162c.79 0 1.027-.533 1.027-1.449v-4.813c0-.275-.109-.539-.305-.732-.196-.193-.461-.3-.736-.294h-.142v-.346c.436 0 .881.045 1.316.045.342 0 .673-.045 1.016-.045l5.082 5.72z" transform="translate(-989.000000, -2179.000000) translate(0.000000, 1889.000000) translate(989.000000, 290.000000)"/>
                    <path d="M132.977 33.706l-.474-.017-5.803-6.466v4.58c.015.995.165 1.28 1.024 1.28h.256v.452h-.05c-.493 0-.985-.044-1.474-.044-.512 0-1.038.044-1.557.044h-.047v-.444h.209c.753 0 .971-.487.977-1.399V26.88c0-.263-.105-.515-.292-.7-.187-.184-.44-.285-.704-.28h-.19v-.44h.047c.44 0 .884.045 1.316.045.337 0 .667-.044 1.056-.027l5.02 5.652v-4.206c0-.91-.61-1.018-.947-1.027h-.297v-.439h.05c.537 0 1.068.044 1.595.044.472 0 .936-.044 1.411-.044h.048v.44h-.22c-.47.014-.957.056-.967 1.403V32.5c-.007.383.014.766.064 1.146l.01.059h-.061zm-.437-.101h.379c-.046-.366-.066-.735-.06-1.104V27.3c0-1.374.577-1.499 1.066-1.5h.124v-.245c-.454 0-.904.046-1.362.046-.516 0-1.028-.043-1.546-.046v.245h.198c.357 0 1.046.157 1.046 1.123l-.014 4.321-.02.022-.035.038-5.09-5.749c-.338 0-.67.046-1.016.046-.427 0-.853-.043-1.267-.046v.245h.098c.288-.005.566.107.771.31.205.202.321.478.321.766v4.81c0 .916-.255 1.5-1.078 1.502h-.112v.242c.498 0 1.004-.044 1.507-.044.478 0 .953.04 1.422.044v-.242h-.142c-.897 0-1.122-.391-1.122-1.388v-4.834l5.935 6.639h-.003zm-.224-2.374l.035-.032-.035.032zM135.934 31.85c-.11.387-.25.687-.25.89 0 .344.484.398.853.398h.128v.346c-.458-.024-.925-.046-1.383-.046-.415 0-.825.022-1.233.046v-.346h.063c.46.002.865-.3.995-.74l1.831-5.245c.18-.462.322-.937.427-1.422.362-.128.711-.292 1.04-.49.03-.013.061-.02.093-.022.03-.005.061.008.078.033.036.093.069.195.106.285l2.101 5.972c.135.398.276.823.427 1.166.142.32.378.453.755.453h.067v.346c-.514-.024-1.03-.046-1.576-.046s-1.137.022-1.716.046v-.346h.126c.262 0 .711-.042.711-.328-.044-.283-.121-.56-.23-.825l-.445-1.325h-2.592l-.376 1.2zm1.67-5.065h-.023l-1.064 3.235h2.142l-1.055-3.235z" transform="translate(-989.000000, -2179.000000) translate(0.000000, 1889.000000) translate(989.000000, 290.000000)"/>
                    <path d="M142.025 33.535c-.514-.02-1.03-.044-1.573-.044-.559 0-1.138.024-1.715.044h-.051v-.444h.173c.266 0 .662-.062.663-.284-.044-.277-.122-.548-.23-.806l-.434-1.294h-2.524l-.351 1.153c-.114.394-.252.694-.25.877 0 .285.428.353.807.353h.175v.445h-.051c-.457-.02-.926-.044-1.38-.044-.412 0-.82.024-1.232.044h-.05v-.444h.112c.44 0 .826-.29.952-.71l1.828-5.248c.176-.473.327-.956.452-1.446.362-.131.71-.296 1.04-.493.035-.016.072-.024.11-.026.052-.003.101.023.126.069.033.09.067.193.104.284l2.103 5.98c.142.4.274.822.426 1.16.134.305.34.427.711.427h.117v.447H142.025zm-3.24-.101c.57-.02 1.122-.043 1.667-.043.53 0 1.028.023 1.524.042v-.24h-.017c-.387 0-.658-.15-.8-.486-.153-.347-.285-.77-.427-1.17l-2.1-5.98c-.034-.09-.071-.192-.098-.27-.01-.016-.01-.016-.019-.016h-.013c-.022.002-.045.007-.066.015-.32.197-.663.35-1.021.458-.105.485-.248.96-.427 1.422l-1.831 5.248c-.137.462-.561.778-1.043.777h-.02v.239c.394-.019.79-.041 1.188-.041.442 0 .891.022 1.335.04v-.238h-.08c-.37 0-.893-.044-.905-.45 0-.227.142-.52.256-.905l.044.014-.044-.016.375-1.221h2.666l.456 1.358c.112.269.189.55.23.839-.016.35-.495.375-.758.38h-.07v.241l-.002.003zm-2.337-3.364l1.1-3.33h.056v.048h-.012.012v-.048h.037l1.08 3.33h-2.273zm.142-.097h2l-.995-3.06-1.004 3.06h-.001zm.974-3.17l.02-.008-.02.009zM144.91 32.363c0 .458.317.595.682.642.504.039 1.01.03 1.512-.025.433-.049.828-.271 1.095-.617.164-.252.284-.53.355-.823h.329c-.127.653-.285 1.293-.427 1.944-1.004 0-2.012-.046-3.013-.046s-2.015.046-3.02.046v-.346h.158c.413 0 .853-.054.853-.765v-5.872c0-.596-.445-.652-.853-.652h-.158v-.345c.605 0 1.201.045 1.804.045s1.156-.045 1.74-.045v.353h-.284c-.426 0-.773.012-.773.618v5.888z" transform="translate(-989.000000, -2179.000000) translate(0.000000, 1889.000000) translate(989.000000, 290.000000)"/>
                    <path d="M148.456 33.535c-1.007 0-2.012-.044-3.013-.044-1.008 0-2.015.044-3.023.044h-.047v-.44h.208c.413-.01.807-.04.811-.719v-5.874c0-.556-.393-.594-.811-.603h-.208v-.44h.047c.61 0 1.204.045 1.807.045.582 0 1.153-.044 1.74-.044h.045v.44h-.333c-.442.01-.72-.008-.73.568v5.895c0 .427.285.54.643.593.2.013.414.022.633.022.29 0 .58-.016.869-.046.418-.05.8-.265 1.06-.596.161-.247.278-.52.345-.807l.011-.04h.427l-.013.062c-.127.653-.285 1.292-.427 1.944l-.011.037-.03.003zm-.038-.1c.132-.618.284-1.227.402-1.848h-.235c-.069.287-.188.56-.352.805-.279.356-.688.586-1.138.637-.29.031-.582.047-.874.047-.22 0-.44-.01-.644-.024-.37-.043-.733-.201-.728-.69v-5.894c0-.637.4-.668.826-.668h.237v-.245c-.569 0-1.12.046-1.69.046-.592 0-1.17-.043-1.755-.046v.245h.11c.407 0 .907.07.907.7v5.873c0 .741-.497.818-.908.818h-.11v.242c.986 0 1.977-.044 2.973-.044.995 0 1.982.042 2.974.044l.005.002zM148.74 25.181c.664 0 1.203.538 1.203 1.202 0 .664-.537 1.203-1.2 1.204-.665.001-1.204-.536-1.206-1.2-.005-.321.12-.63.346-.858.227-.227.536-.353.857-.348zm0 2.183c.4.01.764-.222.924-.588.16-.365.082-.79-.197-1.076-.279-.285-.703-.373-1.072-.222-.369.15-.61.51-.609.909-.004.532.422.968.954.977zm-.597-.341v-.06c.142-.02.175-.014.175-.108v-.89c0-.127-.013-.17-.17-.161v-.063h.617c.209 0 .405.103.405.319 0 .172-.117.322-.285.364l.197.277c.074.108.164.204.267.285v.038h-.235c-.112 0-.209-.238-.426-.553h-.132v.397c0 .082.027.076.173.096v.06l-.586-.001zm.407-.636h.142c.155 0 .228-.117.228-.306.01-.067-.011-.135-.057-.185-.046-.05-.112-.077-.18-.074h-.132l-.001.565zM20.145 39.942C9.095 39.995 0 31.042 0 20.146 0 8.236 9.1-.001 20.145 0h5.178C36.243 0 46.21 8.233 46.21 20.146c0 10.893-9.967 19.796-20.886 19.796h-5.178zm.044-38.29C10.09 1.653 1.907 9.84 1.907 19.936s8.185 18.283 18.283 18.283c10.097 0 18.283-8.185 18.283-18.282C38.472 9.839 30.286 1.654 20.19 1.652zM16.038 30.75V9.123c-4.479 1.717-7.435 6.017-7.435 10.813 0 4.797 2.956 9.097 7.435 10.813zm15.74-10.806c-.004-4.798-2.963-9.097-7.442-10.817v21.632c4.481-1.72 7.44-6.022 7.443-10.821v.006z" transform="translate(-989.000000, -2179.000000) translate(0.000000, 1889.000000) translate(989.000000, 290.000000)"/>
                </g>
            </g>
        </g>
    </g>
</svg>
